<svg xmlns="http://www.w3.org/2000/svg" xmlns:xlink="http://www.w3.org/1999/xlink" width="281" height="283" viewBox="0 0 281 283">
  <defs>
    <filter id="Rectangle_103" x="0" y="1" width="281" height="282" filterUnits="userSpaceOnUse">
      <feOffset dy="13" input="SourceAlpha"/>
      <feGaussianBlur stdDeviation="8" result="blur"/>
      <feFlood flood-opacity="0.161"/>
      <feComposite operator="in" in2="blur"/>
      <feComposite in="SourceGraphic"/>
    </filter>
  </defs>
  <g id="Groupe_1145" data-name="Groupe 1145" transform="translate(-5504 -9458)">
    <g id="Groupe_1142" data-name="Groupe 1142" transform="translate(-32 -75)">
      <g id="Groupe_1140" data-name="Groupe 1140" transform="translate(958 601)">
        <g id="Groupe_1091" data-name="Groupe 1091" transform="translate(459 -95)">
          <g id="Groupe_1089" data-name="Groupe 1089" transform="translate(0 117)">
            <g transform="matrix(1, 0, 0, 1, 4119, 8910)" filter="url(#Rectangle_103)">
              <rect id="Rectangle_103-2" data-name="Rectangle 103" width="233" height="234" transform="translate(24 12)" fill="#fff"/>
            </g>
          </g>
          <rect id="Rectangle_104" data-name="Rectangle 104" width="94" height="24" transform="translate(4213 9027)" fill="#92dba0" opacity="0.278"/>
        </g>
        <text id="In_progress_" data-name="In progress…" transform="translate(4632 9064)" fill="rgba(255,255,255,0.87)" font-size="24" font-family="SourceCodePro-Regular, Source Code Pro"><tspan x="0" y="0">In progress…</tspan></text>
      </g>
    </g>
    <g id="Groupe_1143" data-name="Groupe 1143" transform="translate(5360.958 9175.83)">
      <g id="_3D" data-name=" 3D" style="isolation: isolate">
        <g id="Groupe_1143-2" data-name="Groupe 1143" style="isolation: isolate">
          <path id="Tracé_12122" data-name="Tracé 12122" d="M229.018,370.17h47l-.037,7.858L252.518,393.67h7.857a14.167,14.167,0,0,1,11.181,5.16q4.461,5.159,4.462,10.483v15.715a15.8,15.8,0,0,1-15.643,15.643H244.66q-13.844,0-15.642-15.643h7.857q.552,7.786,7.785,7.785h7.858a7.613,7.613,0,0,0,5.525-2.294,7.435,7.435,0,0,0,2.332-5.491V409.313q0-1.837-1.964-4.811a6.593,6.593,0,0,0-5.893-2.974H236.875V393.67l23.5-15.642H229.018Z" fill="#040405"/>
          <path id="Tracé_12123" data-name="Tracé 12123" d="M291.659,440.671v-70.5h31.358a15.767,15.767,0,0,1,15.641,15.643v39.215a15.8,15.8,0,0,1-15.641,15.643Zm15.642-7.858h7.857a7.867,7.867,0,0,0,7.859-7.785V385.813a7.439,7.439,0,0,0-2.332-5.49,7.614,7.614,0,0,0-5.527-2.295H307.3Z" fill="#040405"/>
        </g>
      </g>
      <g id="Working_on_" data-name="Working on " style="isolation: isolate">
        <g id="Groupe_1144" data-name="Groupe 1144" style="isolation: isolate">
          <path id="Tracé_12124" data-name="Tracé 12124" d="M205.042,457.9H207.3l1.153,9.889c.144,1.32.239,2.089.312,3.648h.071c.289-1.559.457-2.328.769-3.624l1.536-5.856h1.92l1.488,5.856c.336,1.3.48,2.065.768,3.624h.1c.1-1.559.144-2.328.288-3.624l1.1-9.913h2.16l-2.3,15.77h-2.5l-1.536-6.337c-.24-.96-.432-1.872-.576-2.832h-.072c-.168.96-.312,1.872-.552,2.832l-1.536,6.337h-2.449Z" fill="#040405"/>
          <path id="Tracé_12125" data-name="Tracé 12125" d="M220.641,467.862c0-3.912,2.689-6.144,5.761-6.144s5.76,2.232,5.76,6.144a5.77,5.77,0,1,1-11.521,0Zm9.481,0c0-2.688-1.488-4.512-3.72-4.512s-3.72,1.824-3.72,4.512c0,2.664,1.487,4.465,3.72,4.465S230.122,470.526,230.122,467.862Z" fill="#040405"/>
          <path id="Tracé_12126" data-name="Tracé 12126" d="M237.1,462.006h1.632l.169,2.761h.072a6.2,6.2,0,0,1,5.208-3.049,4.905,4.905,0,0,1,2.3.48l-.456,1.7a5.41,5.41,0,0,0-2.16-.408c-1.752,0-3.408.912-4.8,3.336v6.841H237.1Z" fill="#040405"/>
          <path id="Tracé_12127" data-name="Tracé 12127" d="M250.545,456.581h1.968V468.15h.1l6.288-6.144h2.257L256.5,466.59l5.281,7.081h-2.209l-4.3-5.881-2.76,2.713v3.168h-1.968Z" fill="#040405"/>
          <path id="Tracé_12128" data-name="Tracé 12128" d="M269.985,463.614h-5.424v-1.608h7.392v11.665h-1.968Zm-.816-5.593a1.585,1.585,0,1,1,1.584,1.537A1.514,1.514,0,0,1,269.169,458.021Z" fill="#040405"/>
          <path id="Tracé_12129" data-name="Tracé 12129" d="M279.033,462.006h1.632l.168,1.992h.1a5.989,5.989,0,0,1,4.392-2.28c2.76,0,4.033,1.632,4.033,4.7v7.249h-1.969v-6.984c0-2.208-.768-3.265-2.688-3.265-1.392,0-2.328.7-3.7,2.112v8.137h-1.967Z" fill="#040405"/>
          <path id="Tracé_12130" data-name="Tracé 12130" d="M292.928,475.807a3.231,3.231,0,0,1,1.92-2.592v-.1a2.114,2.114,0,0,1-1.2-1.921,2.834,2.834,0,0,1,1.392-2.183v-.1a3.721,3.721,0,0,1-1.44-3.024,4.28,4.28,0,0,1,4.584-4.177,4.727,4.727,0,0,1,1.729.288h4.824v1.608h-3.024a3.523,3.523,0,0,1,.984,2.352c0,2.5-1.992,4.009-4.513,4.009a5.036,5.036,0,0,1-1.968-.432,1.606,1.606,0,0,0-.912,1.344c0,.912.888,1.343,2.424,1.343h2.617c3,0,4.44.769,4.44,2.737,0,2.184-2.52,4.081-6.481,4.081C294.9,479.048,292.928,477.871,292.928,475.807Zm9.913-.528c0-1.1-.888-1.416-2.664-1.416H297.9a6.642,6.642,0,0,1-1.776-.192c-1.1.6-1.488,1.272-1.488,1.944,0,1.224,1.32,1.992,3.816,1.992C301.161,477.607,302.841,476.479,302.841,475.279Zm-1.968-9.384a2.689,2.689,0,1,0-2.689,2.759A2.637,2.637,0,0,0,300.873,465.895Z" fill="#040405"/>
          <path id="Tracé_12131" data-name="Tracé 12131" d="M321.439,467.862c0-3.912,2.689-6.144,5.761-6.144s5.761,2.232,5.761,6.144a5.77,5.77,0,1,1-11.522,0Zm9.482,0c0-2.688-1.488-4.512-3.721-4.512s-3.72,1.824-3.72,4.512c0,2.664,1.488,4.465,3.72,4.465S330.921,470.526,330.921,467.862Z" fill="#040405"/>
          <path id="Tracé_12132" data-name="Tracé 12132" d="M336.632,462.006h1.632l.168,1.992h.1a5.99,5.99,0,0,1,4.392-2.28c2.761,0,4.033,1.632,4.033,4.7v7.249h-1.969v-6.984c0-2.208-.767-3.265-2.688-3.265-1.392,0-2.328.7-3.7,2.112v8.137h-1.968Z" fill="#040405"/>
          <path id="Tracé_12133" data-name="Tracé 12133" d="M349.567,472.159a1.673,1.673,0,1,1,1.681,1.8A1.688,1.688,0,0,1,349.567,472.159Zm4.753,0a1.684,1.684,0,1,1,1.68,1.8A1.687,1.687,0,0,1,354.32,472.159Zm4.777,0a1.673,1.673,0,1,1,3.336,0,1.673,1.673,0,1,1-3.336,0Z" fill="#040405"/>
        </g>
      </g>
    </g>
  </g>
</svg>
