<svg xmlns="http://www.w3.org/2000/svg" xmlns:xlink="http://www.w3.org/1999/xlink" width="1727.371" height="895.359" viewBox="0 0 1727.371 895.359">
  <defs>
    <linearGradient id="linear-gradient" x1="0.442" y1="1.089" x2="0.558" y2="-0.089" gradientUnits="objectBoundingBox">
      <stop offset="0.004" stop-color="#fbfeff"/>
      <stop offset="0.414" stop-color="#f1e1f2"/>
      <stop offset="1" stop-color="#83bcdb"/>
    </linearGradient>
  </defs>
  <g id="Groupe_226" data-name="Groupe 226" transform="translate(-2760.15 -7916)">
    <g id="Groupe_109" data-name="Groupe 109" transform="translate(2760.15 7916)">
      <g id="_15" data-name="15">
        <g id="Layer_11">
          <g id="Layer_2">
            <rect id="Rectangle_2" data-name="Rectangle 2" width="1727.371" height="885.606" fill="url(#linear-gradient)"/>
          </g>
        </g>
        <g id="Layer_16" transform="translate(0 569.222)">
          <g id="Groupe_2" data-name="Groupe 2">
            <g id="Groupe_1" data-name="Groupe 1">
              <path id="Tracé_1" data-name="Tracé 1" d="M0,428.552,600.705,310.786l67.759,10.093,147.772-83.617,45.416,59.107L835.7,325.927l102.361,42.529-176.009,194H0Z" transform="translate(0 -237.262)" fill="#d6d6e4"/>
              <path id="Tracé_2" data-name="Tracé 2" d="M1362.529,513.939,451.393,237.262l41.882,54.508-22.417,34.156,102.361,42.529L260.764,562.716h202.88l898.885.684Z" transform="translate(364.842 -237.262)" fill="#c8c2de"/>
            </g>
            <path id="Tracé_3" data-name="Tracé 3" d="M251.567,270l69.659,14.45-73.262,10.741Z" transform="translate(346.932 -191.457)" fill="#c8c2de"/>
          </g>
        </g>
        <g id="Layer_3" transform="translate(0.002 46.078)">
          <g id="Groupe_6" data-name="Groupe 6">
            <g id="Groupe_3" data-name="Groupe 3" transform="translate(40.231 432.836)" opacity="0.2">
              <path id="Tracé_4" data-name="Tracé 4" d="M535.027,309.111c-12.845-12.207-36.606-6.425-42.385-2.5-2.625,1.78-7.905,1.4-12.883.446-2.344-6.382-10.623-11.1-20.508-11.1-9.035,0-16.729,3.947-19.778,9.5-15.6,3.284-24.944-.629-29.944-4.41a20.212,20.212,0,0,0,2.841-10.093c0-15.431-18.615-28.1-42.4-29.536,0-.046.01-.094.01-.142,0-16.391-15.242-29.68-34.034-29.68a38.221,38.221,0,0,0-13.27,2.342c-18.5-20.671-50.226-34.315-86.268-34.315-52.891,0-96.471,29.358-102.625,67.224a44.92,44.92,0,0,0-14.793-2.5c-15.3,0-28.571,7.512-35.279,18.531l-.01-.007S70.714,301.732,51.449,304.3s-34.679,5.137-34.679,5.137,1.394,4.287,12.583,7.708H546.624A40.493,40.493,0,0,1,535.027,309.111Z" transform="translate(-16.77 -199.62)" fill="#fff"/>
            </g>
            <g id="Groupe_4" data-name="Groupe 4" transform="translate(1280.867)" opacity="0.2">
              <path id="Tracé_5" data-name="Tracé 5" d="M976.366,115.541c-9.038,0-16.731,3.947-19.778,9.5-15.6,3.284-24.941-.629-29.943-4.41a20.191,20.191,0,0,0,2.843-10.093c0-15.431-18.617-28.1-42.4-29.536,0-.046.01-.094.01-.142,0-16.391-15.239-29.68-34.034-29.68a38.221,38.221,0,0,0-13.27,2.342c-18.5-20.671-50.223-34.315-86.268-34.315-52.891,0-96.474,29.358-102.625,67.224a44.9,44.9,0,0,0-14.791-2.5c-15.3,0-28.571,7.512-35.277,18.531l-.012-.007s-12.987,18.862-32.249,21.431-34.679,5.137-34.679,5.137,1.391,4.287,12.581,7.708H977.992V115.589C977.455,115.562,976.915,115.541,976.366,115.541Z" transform="translate(-533.89 -19.206)" fill="#fff"/>
            </g>
            <g id="Groupe_5" data-name="Groupe 5" transform="translate(591.546 392.715)" opacity="0.2">
              <path id="Tracé_6" data-name="Tracé 6" d="M612.569,260.226c-9.071-8.622-25.855-4.539-29.934-1.768-1.854,1.257-5.585.986-9.1.317-1.658-4.508-7.507-7.84-14.484-7.84-6.382,0-11.818,2.785-13.968,6.708-11.022,2.32-17.614-.446-21.146-3.114a14.285,14.285,0,0,0,2.006-7.13c0-10.9-13.147-19.848-29.941-20.856,0-.036,0-.067,0-.1,0-11.573-10.762-20.956-24.034-20.956a26.993,26.993,0,0,0-9.371,1.651c-13.063-14.6-35.471-24.236-60.926-24.236-37.352,0-68.13,20.736-72.478,47.474a31.748,31.748,0,0,0-10.446-1.763c-10.8,0-20.179,5.3-24.913,13.087l-.007,0s-9.172,13.322-22.775,15.136-24.49,3.628-24.49,3.628.984,3.03,8.884,5.446H620.765A28.5,28.5,0,0,1,612.569,260.226Z" transform="translate(-246.568 -182.897)" fill="#fff"/>
            </g>
            <path id="Tracé_7" data-name="Tracé 7" d="M582.118,221.454c-18.135-17.233-51.689-9.066-59.851-3.532-3.707,2.517-11.161,1.967-18.19.629-3.308-9.006-15-15.678-28.957-15.678-12.754,0-23.622,5.576-27.923,13.416-22.034,4.64-35.222-.883-42.285-6.223a28.558,28.558,0,0,0,4.011-14.253c0-21.789-26.282-39.679-59.865-41.7,0-.065.014-.132.014-.2,0-23.142-21.52-41.906-48.059-41.906a53.965,53.965,0,0,0-18.735,3.306c-26.124-29.188-70.916-48.453-121.811-48.453-74.682,0-136.218,41.452-144.9,94.917A63.264,63.264,0,0,0,0,158.472v84.389c33.633,2.4,38.4,23.37,123.078,27.494,105.931,5.158,122.95-18.416,164.559-15.5s83.25,21.974,147.546,20.467c64.21-1.5,132.173-16.172,158.736-42.525H598.5A56.943,56.943,0,0,1,582.118,221.454Z" transform="translate(-0.001 47.46)" fill="#fff" opacity="0.2"/>
            <path id="Tracé_8" data-name="Tracé 8" d="M1096.692,250.068c-17.173-16.319-48.952-8.586-56.684-3.344-3.51,2.385-10.568,1.864-17.228.6-3.133-8.529-14.205-14.848-27.427-14.848-12.077,0-22.372,5.28-26.443,12.706-20.865,4.4-33.357-.837-40.046-5.895a27.013,27.013,0,0,0,3.8-13.5c0-20.635-24.893-37.58-56.7-39.494,0-.062.012-.125.012-.192,0-21.916-20.383-39.686-45.516-39.686a51.105,51.105,0,0,0-17.742,3.131c-24.745-27.643-67.166-45.886-115.364-45.886-70.729,0-129.011,39.259-137.237,89.893a60.022,60.022,0,0,0-19.781-3.34c-20.455,0-38.208,10.045-47.176,24.778l-.014-.01s-17.363,25.224-43.132,28.66-46.375,6.869-46.375,6.869,1.864,5.731,16.83,10.3l-3.971.261s34.137,17.175,111.072,9.671c50.161-4.9,41.339,21.11,134.37,25.642C762.268,301.27,778.388,278.939,817.8,281.7s78.84,20.81,139.737,19.383c60.808-1.418,125.174-15.314,150.332-40.272h4.338A53.967,53.967,0,0,1,1096.692,250.068Z" transform="translate(564.744 98.947)" fill="#fff" opacity="0.2"/>
          </g>
          <g id="Groupe_7" data-name="Groupe 7" transform="translate(1310.019 574.636)" opacity="0.2">
            <path id="Tracé_9" data-name="Tracé 9" d="M912.047,336.054c-9.071-8.622-25.853-4.539-29.934-1.768-1.854,1.257-5.583.986-9.1.317-1.656-4.508-7.5-7.84-14.481-7.84-6.382,0-11.818,2.785-13.968,6.708-11.022,2.32-17.617-.446-21.148-3.114a14.264,14.264,0,0,0,2.008-7.13c0-10.9-13.147-19.848-29.944-20.856,0-.036.007-.067.007-.1,0-11.573-10.763-20.956-24.037-20.956a27,27,0,0,0-9.371,1.651c-13.063-14.6-35.469-24.236-60.926-24.236-37.352,0-68.13,20.736-72.478,47.474a31.749,31.749,0,0,0-10.446-1.763c-10.806,0-20.177,5.3-24.915,13.087l-.007,0s-9.172,13.322-22.775,15.136-24.493,3.627-24.493,3.627.984,3.03,8.884,5.446H920.238A28.532,28.532,0,0,1,912.047,336.054Z" transform="translate(-546.041 -258.725)" fill="#fff"/>
          </g>
        </g>
        <g id="Layer_15" transform="translate(388.901 181.902)">
          <g id="Groupe_108" data-name="Groupe 108">
            <circle id="Ellipse_62" data-name="Ellipse 62" cx="82.765" cy="82.765" r="82.765" fill="#fff" opacity="0.9"/>
            <circle id="Ellipse_63" data-name="Ellipse 63" cx="14.625" cy="14.625" r="14.625" transform="translate(78.847 21.611)" fill="#dbdbdb" opacity="0.6"/>
            <circle id="Ellipse_64" data-name="Ellipse 64" cx="11.453" cy="11.453" r="11.453" transform="translate(114.374 55.321)" fill="#dbdbdb" opacity="0.6"/>
          </g>
        </g>
      </g>
    </g>
  </g>
</svg>
