<svg xmlns="http://www.w3.org/2000/svg" xmlns:xlink="http://www.w3.org/1999/xlink" width="281" height="283" viewBox="0 0 281 283">
  <defs>
    <filter id="Rectangle_103" x="0" y="1" width="281" height="282" filterUnits="userSpaceOnUse">
      <feOffset dy="13" input="SourceAlpha"/>
      <feGaussianBlur stdDeviation="8" result="blur"/>
      <feFlood flood-opacity="0.161"/>
      <feComposite operator="in" in2="blur"/>
      <feComposite in="SourceGraphic"/>
    </filter>
  </defs>
  <g id="Groupe_1092" data-name="Groupe 1092" transform="translate(-4578 -8932)">
    <g id="Groupe_1091" data-name="Groupe 1091" transform="translate(459 -95)">
      <g id="Groupe_1089" data-name="Groupe 1089" transform="translate(0 117)">
        <g transform="matrix(1, 0, 0, 1, 4119, 8910)" filter="url(#Rectangle_103)">
          <rect id="Rectangle_103-2" data-name="Rectangle 103" width="233" height="234" transform="translate(24 12)" fill="#fff"/>
        </g>
      </g>
      <rect id="Rectangle_104" data-name="Rectangle 104" width="94" height="24" transform="translate(4213 9027)" fill="#92aedb" opacity="0.278"/>
    </g>
    <g id="In_progress_" data-name="In progress " transform="translate(3951.318 8302.585)" style="isolation: isolate">
      <g id="Groupe_1098" data-name="Groupe 1098" style="isolation: isolate">
        <path id="Tracé_11912" data-name="Tracé 11912" d="M682.682,761.456h3.912V749.095h-3.912v-1.68h9.84v1.68H688.61v12.361h3.912v1.7h-9.84Z"/>
        <path id="Tracé_11913" data-name="Tracé 11913" d="M697.034,751.495h1.632l.167,1.992h.1a5.988,5.988,0,0,1,4.392-2.28c2.76,0,4.032,1.632,4.032,4.7v7.249h-1.967v-6.984c0-2.208-.769-3.265-2.689-3.265-1.392,0-2.328.7-3.7,2.112v8.137h-1.967Z"/>
        <path id="Tracé_11914" data-name="Tracé 11914" d="M725.833,751.495h1.632l.168,1.488h.072a6.144,6.144,0,0,1,4.032-1.776c3.145,0,4.825,2.328,4.825,5.952,0,3.961-2.5,6.289-5.3,6.289a5.489,5.489,0,0,1-3.481-1.511h-.072l.1,2.208v3.936h-1.968Zm8.688,5.664c0-2.567-.959-4.3-3.288-4.3a5.088,5.088,0,0,0-3.432,1.752v5.809a5.026,5.026,0,0,0,3.121,1.368C733.01,761.792,734.521,760.04,734.521,757.159Z"/>
        <path id="Tracé_11915" data-name="Tracé 11915" d="M741.505,751.495h1.632l.169,2.761h.071a6.2,6.2,0,0,1,5.209-3.049,4.894,4.894,0,0,1,2.3.481l-.456,1.7a5.412,5.412,0,0,0-2.161-.409c-1.752,0-3.408.913-4.8,3.336v6.841h-1.969Z"/>
        <path id="Tracé_11916" data-name="Tracé 11916" d="M753.841,757.352c0-3.913,2.688-6.145,5.761-6.145s5.759,2.232,5.759,6.145a5.769,5.769,0,1,1-11.52,0Zm9.48,0c0-2.689-1.488-4.513-3.719-4.513s-3.721,1.824-3.721,4.513c0,2.664,1.488,4.464,3.721,4.464S763.321,760.016,763.321,757.352Z"/>
        <path id="Tracé_11917" data-name="Tracé 11917" d="M768.528,765.3a3.231,3.231,0,0,1,1.92-2.592v-.1a2.113,2.113,0,0,1-1.2-1.92,2.834,2.834,0,0,1,1.393-2.184v-.1a3.72,3.72,0,0,1-1.441-3.024,4.28,4.28,0,0,1,4.584-4.177,4.741,4.741,0,0,1,1.729.288h4.824V753.1h-3.025a3.517,3.517,0,0,1,.985,2.351c0,2.5-1.992,4.009-4.513,4.009a5.043,5.043,0,0,1-1.968-.432,1.607,1.607,0,0,0-.912,1.344c0,.912.888,1.344,2.424,1.344h2.617c3,0,4.44.768,4.44,2.736,0,2.185-2.52,4.081-6.481,4.081C770.5,768.537,768.528,767.36,768.528,765.3Zm9.913-.527c0-1.1-.888-1.416-2.665-1.416H773.5a6.592,6.592,0,0,1-1.776-.193c-1.1.6-1.489,1.273-1.489,1.944,0,1.224,1.321,1.993,3.817,1.993C776.761,767.1,778.441,765.969,778.441,764.769Zm-1.968-9.385a2.689,2.689,0,1,0-2.689,2.76A2.637,2.637,0,0,0,776.473,755.384Z"/>
        <path id="Tracé_11918" data-name="Tracé 11918" d="M784.7,751.495h1.632l.169,2.761h.071a6.2,6.2,0,0,1,5.209-3.049,4.894,4.894,0,0,1,2.3.481l-.456,1.7a5.41,5.41,0,0,0-2.16-.409c-1.752,0-3.409.913-4.8,3.336v6.841H784.7Z"/>
        <path id="Tracé_11919" data-name="Tracé 11919" d="M797.232,757.3a5.866,5.866,0,0,1,5.953-6.1c3.36,0,5.328,2.185,5.328,5.473a8.1,8.1,0,0,1-.1,1.2h-9.192a4.188,4.188,0,0,0,4.536,3.984,6.352,6.352,0,0,0,3.551-1.1l.721,1.3a7.993,7.993,0,0,1-4.512,1.392C800.017,763.448,797.232,761.192,797.232,757.3Zm2.04-.96h7.441c-.168-2.4-1.488-3.576-3.481-3.576A3.952,3.952,0,0,0,799.272,756.344Z"/>
        <path id="Tracé_11920" data-name="Tracé 11920" d="M811.7,761.624l.912-1.3a8.274,8.274,0,0,0,5.065,1.584c1.967,0,2.952-.84,2.952-1.824,0-.888-.481-1.512-3.649-2.16-3.024-.624-4.56-1.657-4.56-3.408,0-1.873,1.656-3.313,4.848-3.313a8.758,8.758,0,0,1,4.705,1.488l-.96,1.273a6.884,6.884,0,0,0-3.913-1.225c-1.992,0-2.688.792-2.688,1.681,0,1.008,1.008,1.439,3.385,1.943,3.887.841,4.824,1.824,4.824,3.6,0,1.9-1.849,3.48-5.185,3.48A10.251,10.251,0,0,1,811.7,761.624Z"/>
        <path id="Tracé_11921" data-name="Tracé 11921" d="M826.1,761.624l.912-1.3a8.271,8.271,0,0,0,5.064,1.584c1.969,0,2.952-.84,2.952-1.824,0-.888-.479-1.512-3.648-2.16-3.024-.624-4.56-1.657-4.56-3.408,0-1.873,1.656-3.313,4.848-3.313a8.758,8.758,0,0,1,4.705,1.488l-.96,1.273a6.886,6.886,0,0,0-3.913-1.225c-1.992,0-2.688.792-2.688,1.681,0,1.008,1.008,1.439,3.384,1.943,3.889.841,4.824,1.824,4.824,3.6,0,1.9-1.847,3.48-5.184,3.48A10.254,10.254,0,0,1,826.1,761.624Z"/>
        <path id="Tracé_11922" data-name="Tracé 11922" d="M839.567,761.648a1.673,1.673,0,1,1,1.68,1.8A1.687,1.687,0,0,1,839.567,761.648Zm4.752,0a1.684,1.684,0,1,1,1.681,1.8A1.687,1.687,0,0,1,844.319,761.648Zm4.777,0a1.673,1.673,0,1,1,3.337,0,1.673,1.673,0,1,1-3.337,0Z"/>
      </g>
    </g>
  </g>
</svg>
