<svg xmlns="http://www.w3.org/2000/svg" xmlns:xlink="http://www.w3.org/1999/xlink" width="281" height="283" viewBox="0 0 281 283">
  <defs>
    <filter id="Rectangle_103" x="0" y="1" width="281" height="282" filterUnits="userSpaceOnUse">
      <feOffset dy="13" input="SourceAlpha"/>
      <feGaussianBlur stdDeviation="8" result="blur"/>
      <feFlood flood-opacity="0.161"/>
      <feComposite operator="in" in2="blur"/>
      <feComposite in="SourceGraphic"/>
    </filter>
  </defs>
  <g id="Groupe_1092" data-name="Groupe 1092" transform="translate(-4578 -8932)">
    <g id="Groupe_1091" data-name="Groupe 1091" transform="translate(459 -95)">
      <g id="Groupe_1089" data-name="Groupe 1089" transform="translate(0 117)">
        <g transform="matrix(1, 0, 0, 1, 4119, 8910)" filter="url(#Rectangle_103)">
          <rect id="Rectangle_103-2" data-name="Rectangle 103" width="233" height="234" transform="translate(24 12)" fill="#fff"/>
        </g>
      </g>
      <rect id="Rectangle_104" data-name="Rectangle 104" width="94" height="24" transform="translate(4213 9027)" fill="#92aedb" opacity="0.278"/>
    </g>
    <g id="Put_your_sound_ON_:_DONT_CLICK_ON_EXIT_Im_working_it" data-name="Put your sound ON : DONT CLICK ON EXIT Im working it" transform="translate(3951.518 8311.585)" style="isolation: isolate">
      <g id="Groupe_1100" data-name="Groupe 1100" style="isolation: isolate">
        <path id="Tracé_11912" data-name="Tracé 11912" d="M711.65,685.415H716.4c3.481,0,5.833,1.176,5.833,4.632,0,3.312-2.377,4.873-5.833,4.873h-2.759v6.24H711.65Zm4.512,7.872c2.761,0,4.057-1.008,4.057-3.24,0-2.28-1.344-3.025-4.057-3.025h-2.519v6.265Z"/>
        <path id="Tracé_11913" data-name="Tracé 11913" d="M725.45,696.744v-7.249h1.992v6.984c0,2.209.745,3.265,2.689,3.265,1.344,0,2.328-.648,3.624-2.16v-8.089h1.968V701.16h-1.609l-.168-2.04h-.095a5.677,5.677,0,0,1-4.345,2.328C726.722,701.448,725.45,699.816,725.45,696.744Z"/>
        <path id="Tracé_11914" data-name="Tracé 11914" d="M742.946,696.624V691.1h-3.288v-1.489l3.361-.12.263-3.744h1.632v3.744h5.736V691.1h-5.736v5.543c0,2.089.7,3.193,2.952,3.193a7.7,7.7,0,0,0,2.809-.528l.431,1.44a10.166,10.166,0,0,1-3.647.7C744.05,701.448,742.946,699.5,742.946,696.624Z"/>
        <path id="Tracé_11915" data-name="Tracé 11915" d="M768.409,705.937l.408-1.561a3.71,3.71,0,0,0,1.056.169,3.4,3.4,0,0,0,3.192-2.5l.361-.863-5.448-11.69h1.992l2.855,6.457c.456,1.031.96,2.256,1.441,3.384h.1c.409-1.1.865-2.328,1.248-3.384l2.545-6.457h1.872L774.89,702.12c-.865,2.3-2.3,4.057-4.945,4.057A4.917,4.917,0,0,1,768.409,705.937Z"/>
        <path id="Tracé_11916" data-name="Tracé 11916" d="M782.641,695.352c0-3.913,2.688-6.145,5.76-6.145s5.761,2.232,5.761,6.145a5.77,5.77,0,1,1-11.521,0Zm9.481,0c0-2.689-1.488-4.513-3.721-4.513s-3.719,1.824-3.719,4.513c0,2.664,1.487,4.464,3.719,4.464S792.122,698.016,792.122,695.352Z"/>
        <path id="Tracé_11917" data-name="Tracé 11917" d="M797.448,696.744v-7.249h1.992v6.984c0,2.209.745,3.265,2.689,3.265,1.344,0,2.328-.648,3.624-2.16v-8.089h1.969V701.16h-1.609l-.168-2.04h-.1a5.68,5.68,0,0,1-4.345,2.328C798.721,701.448,797.448,699.816,797.448,696.744Z"/>
        <path id="Tracé_11918" data-name="Tracé 11918" d="M813.505,689.495h1.632l.168,2.761h.072a6.2,6.2,0,0,1,5.208-3.049,4.9,4.9,0,0,1,2.3.481l-.456,1.7a5.415,5.415,0,0,0-2.161-.409c-1.752,0-3.408.913-4.8,3.336v6.841h-1.968Z"/>
      </g>
      <g id="Groupe_1101" data-name="Groupe 1101" style="isolation: isolate">
        <path id="Tracé_11919" data-name="Tracé 11919" d="M689.306,730.624l.912-1.3a8.274,8.274,0,0,0,5.065,1.584c1.968,0,2.952-.84,2.952-1.824,0-.888-.48-1.512-3.649-2.16-3.024-.624-4.56-1.657-4.56-3.408,0-1.873,1.657-3.313,4.849-3.313a8.754,8.754,0,0,1,4.7,1.488l-.96,1.273a6.883,6.883,0,0,0-3.912-1.225c-1.993,0-2.688.792-2.688,1.681,0,1.008,1.007,1.439,3.384,1.943,3.888.841,4.824,1.824,4.824,3.6,0,1.9-1.848,3.48-5.185,3.48A10.254,10.254,0,0,1,689.306,730.624Z"/>
        <path id="Tracé_11920" data-name="Tracé 11920" d="M703.441,726.352c0-3.913,2.689-6.145,5.761-6.145s5.761,2.232,5.761,6.145a5.77,5.77,0,1,1-11.522,0Zm9.482,0c0-2.689-1.488-4.513-3.721-4.513s-3.72,1.824-3.72,4.513c0,2.664,1.488,4.464,3.72,4.464S712.923,729.016,712.923,726.352Z"/>
        <path id="Tracé_11921" data-name="Tracé 11921" d="M718.25,727.744v-7.249h1.992v6.984c0,2.209.744,3.265,2.688,3.265,1.344,0,2.329-.648,3.625-2.16v-8.089h1.967V732.16h-1.608l-.168-2.04h-.1a5.675,5.675,0,0,1-4.344,2.328C719.521,732.448,718.25,730.816,718.25,727.744Z"/>
        <path id="Tracé_11922" data-name="Tracé 11922" d="M733.033,720.495h1.632l.168,1.992h.1a5.986,5.986,0,0,1,4.391-2.28c2.761,0,4.033,1.632,4.033,4.7v7.249h-1.968v-6.984c0-2.208-.768-3.265-2.689-3.265-1.391,0-2.328.7-3.7,2.112v8.137h-1.968Z"/>
        <path id="Tracé_11923" data-name="Tracé 11923" d="M746.641,726.352c0-3.792,2.545-6.145,5.3-6.145a4.835,4.835,0,0,1,3.481,1.513h.072l-.1-2.161V715.07h1.969v17.09h-1.632l-.169-1.536H755.5a5.6,5.6,0,0,1-3.793,1.824C748.657,732.448,746.641,730.24,746.641,726.352Zm8.76,2.688v-5.809a4.409,4.409,0,0,0-3.072-1.368c-2.016,0-3.647,1.8-3.647,4.465,0,2.784,1.271,4.464,3.431,4.464A4.479,4.479,0,0,0,755.4,729.04Z"/>
        <path id="Tracé_11924" data-name="Tracé 11924" d="M775.152,724.216c0-5.089,2.5-8.089,6.049-8.089s6.048,3,6.048,8.089c0,5.16-2.5,8.232-6.048,8.232S775.152,729.376,775.152,724.216Zm10.034,0c0-3.961-1.585-6.337-3.985-6.337s-3.984,2.376-3.984,6.337c0,4.032,1.584,6.48,3.984,6.48S785.186,728.248,785.186,724.216Z"/>
        <path id="Tracé_11925" data-name="Tracé 11925" d="M790.368,716.415h2.208l5.041,9.889,1.512,3.264h.048c-.072-1.56-.264-3.337-.264-4.993v-8.16h1.92V732.16h-2.208l-5.04-9.889-1.513-3.264h-.048c.073,1.608.264,3.288.264,4.921v8.232h-1.92Z"/>
        <path id="Tracé_11926" data-name="Tracé 11926" d="M822.456,721.839a1.946,1.946,0,1,1,1.944,2.016A1.931,1.931,0,0,1,822.456,721.839Zm0,8.593a1.946,1.946,0,1,1,1.944,2.016A1.931,1.931,0,0,1,822.456,730.432Z"/>
        <path id="Tracé_11927" data-name="Tracé 11927" d="M834.528,735.376a12.746,12.746,0,0,0,0-19.777l1.08-1.008a13.693,13.693,0,0,1,0,21.794Z"/>
      </g>
      <g id="Groupe_1102" data-name="Groupe 1102" style="isolation: isolate">
        <path id="Tracé_11928" data-name="Tracé 11928" d="M696.89,747.415h3.888c4.729,0,7.3,2.808,7.3,7.8,0,5.015-2.568,7.944-7.2,7.944H696.89Zm3.744,14.113c3.6,0,5.377-2.328,5.377-6.312,0-3.961-1.777-6.169-5.377-6.169h-1.752v12.481Z"/>
        <path id="Tracé_11929" data-name="Tracé 11929" d="M710.354,755.216c0-5.089,2.5-8.089,6.048-8.089s6.049,3,6.049,8.089c0,5.16-2.5,8.232-6.049,8.232S710.354,760.376,710.354,755.216Zm10.033,0c0-3.961-1.584-6.337-3.985-6.337s-3.984,2.376-3.984,6.337c0,4.032,1.584,6.48,3.984,6.48S720.387,759.248,720.387,755.216Z"/>
        <path id="Tracé_11930" data-name="Tracé 11930" d="M725.57,747.415h2.208l5.04,9.889,1.513,3.264h.048c-.072-1.56-.265-3.337-.265-4.993v-8.16h1.921V763.16h-2.208l-5.041-9.889-1.512-3.264h-.047c.071,1.608.263,3.288.263,4.921v8.232h-1.92Z"/>
        <path id="Tracé_11931" data-name="Tracé 11931" d="M744.193,749.095H739.01v-1.68H751.4v1.68H746.21V763.16h-2.017Z"/>
        <path id="Tracé_11932" data-name="Tracé 11932" d="M768.361,755.287c0-5.064,2.952-8.16,7.057-8.16a5.843,5.843,0,0,1,4.3,1.92l-1.128,1.272a4.241,4.241,0,0,0-3.168-1.44c-3.024,0-4.992,2.448-4.992,6.36,0,3.961,1.968,6.457,4.992,6.457a4.572,4.572,0,0,0,3.552-1.752l1.129,1.224a6.123,6.123,0,0,1-4.873,2.28C771.338,763.448,768.361,760.424,768.361,755.287Z"/>
        <path id="Tracé_11933" data-name="Tracé 11933" d="M784.417,747.415h1.968v14.041h7.8v1.7h-9.769Z"/>
        <path id="Tracé_11934" data-name="Tracé 11934" d="M797.881,761.456h3.912V749.095h-3.912v-1.68h9.841v1.68h-3.913v12.361h3.913v1.7h-9.841Z"/>
        <path id="Tracé_11935" data-name="Tracé 11935" d="M811.561,755.287c0-5.064,2.952-8.16,7.056-8.16a5.843,5.843,0,0,1,4.3,1.92l-1.128,1.272a4.241,4.241,0,0,0-3.168-1.44c-3.024,0-4.992,2.448-4.992,6.36,0,3.961,1.968,6.457,4.992,6.457a4.571,4.571,0,0,0,3.552-1.752l1.129,1.224a6.122,6.122,0,0,1-4.873,2.28C814.537,763.448,811.561,760.424,811.561,755.287Z"/>
        <path id="Tracé_11936" data-name="Tracé 11936" d="M826.752,747.415h2.017v7.9h.072l6.624-7.9h2.28l-4.992,5.977,5.568,9.768h-2.256L831.48,754.9l-2.711,3.241v5.016h-2.017Z"/>
      </g>
      <g id="Groupe_1103" data-name="Groupe 1103" style="isolation: isolate">
        <path id="Tracé_11937" data-name="Tracé 11937" d="M695.954,786.216c0-5.089,2.5-8.089,6.049-8.089s6.048,3,6.048,8.089c0,5.16-2.5,8.232-6.048,8.232S695.954,791.376,695.954,786.216Zm10.033,0c0-3.961-1.585-6.337-3.984-6.337s-3.985,2.376-3.985,6.337c0,4.032,1.584,6.48,3.985,6.48S705.987,790.248,705.987,786.216Z"/>
        <path id="Tracé_11938" data-name="Tracé 11938" d="M711.17,778.415h2.208l5.041,9.889,1.512,3.264h.048c-.072-1.56-.264-3.337-.264-4.993v-8.16h1.92V794.16h-2.208l-5.04-9.889-1.513-3.264h-.048c.072,1.608.264,3.288.264,4.921v8.232h-1.92Z"/>
        <path id="Tracé_11939" data-name="Tracé 11939" d="M740.737,778.415h9.745v1.68h-7.728v4.944h6.528v1.7h-6.528v5.713h7.969v1.7h-9.986Z"/>
        <path id="Tracé_11940" data-name="Tracé 11940" d="M758.4,786.023l-4.392-7.608h2.209l2.208,4.032c.408.72.767,1.368,1.271,2.281h.1c.432-.913.744-1.561,1.128-2.281l2.16-4.032h2.112l-4.392,7.7,4.7,8.041H763.3l-2.376-4.248c-.432-.768-.864-1.56-1.393-2.52h-.095c-.456.96-.865,1.752-1.273,2.52l-2.351,4.248H753.7Z"/>
        <path id="Tracé_11941" data-name="Tracé 11941" d="M769.081,792.456h3.912V780.095h-3.912v-1.68h9.841v1.68H775.01v12.361h3.912v1.7h-9.841Z"/>
        <path id="Tracé_11942" data-name="Tracé 11942" d="M787.393,780.095h-5.184v-1.68h12.385v1.68h-5.185V794.16h-2.016Z"/>
        <path id="Tracé_11943" data-name="Tracé 11943" d="M815.448,792.576a1.754,1.754,0,1,1,3.505,0,1.756,1.756,0,1,1-3.505,0Zm.841-12.241-.048-2.256h1.92l-.048,2.256-.24,8.257h-1.345Z"/>
        <path id="Tracé_11944" data-name="Tracé 11944" d="M829.849,792.576a1.753,1.753,0,1,1,3.5,0,1.756,1.756,0,1,1-3.5,0Zm.839-12.241-.047-2.256h1.92l-.048,2.256-.241,8.257h-1.343Z"/>
      </g>
      <g id="Groupe_1104" data-name="Groupe 1104" style="isolation: isolate">
        <path id="Tracé_11945" data-name="Tracé 11945" d="M675.482,823.456h3.912V811.095h-3.912v-1.68h9.841v1.68H681.41v12.361h3.913v1.7h-9.841Z"/>
        <path id="Tracé_11946" data-name="Tracé 11946" d="M688.994,813.495h1.584l.168,1.536h.048a2.9,2.9,0,0,1,2.664-1.824c1.152,0,1.872.672,2.209,2.017.671-1.248,1.392-2.017,2.735-2.017,1.633,0,2.593,1.272,2.593,3.6v8.352h-1.969v-8.209c0-1.344-.383-2.04-1.248-2.04-.816,0-1.248.6-1.872,1.8v8.449h-1.824v-8.209c0-1.344-.336-2.04-1.2-2.04-.816,0-1.344.6-1.92,1.8v8.449h-1.968Z"/>
        <path id="Tracé_11947" data-name="Tracé 11947" d="M716.593,813.495h1.969l1.391,6.769c.217,1.1.385,2.112.528,3.216h.1a29.417,29.417,0,0,1,.673-3.216l1.439-6.049h1.969l1.392,6.049a31.2,31.2,0,0,1,.721,3.216h.1c.192-1.1.312-2.112.529-3.216l1.391-6.769h1.824l-2.5,11.665H725.57l-1.344-5.568q-.288-1.225-.577-3.456h-.095q-.289,2.23-.576,3.456l-1.3,5.568h-2.544Z"/>
        <path id="Tracé_11948" data-name="Tracé 11948" d="M732.241,819.352c0-3.913,2.689-6.145,5.761-6.145s5.76,2.232,5.76,6.145a5.77,5.77,0,1,1-11.521,0Zm9.481,0c0-2.689-1.489-4.513-3.72-4.513s-3.721,1.824-3.721,4.513c0,2.664,1.489,4.464,3.721,4.464S741.722,822.016,741.722,819.352Z"/>
        <path id="Tracé_11949" data-name="Tracé 11949" d="M748.705,813.495h1.632l.169,2.761h.071a6.2,6.2,0,0,1,5.209-3.049,4.894,4.894,0,0,1,2.3.481l-.456,1.7a5.41,5.41,0,0,0-2.16-.409c-1.752,0-3.409.913-4.8,3.336v6.841h-1.969Z"/>
        <path id="Tracé_11950" data-name="Tracé 11950" d="M762.145,808.07h1.967v11.57h.1l6.288-6.145h2.257l-4.657,4.584,5.281,7.081h-2.209l-4.3-5.881-2.761,2.713v3.168h-1.967Z"/>
        <path id="Tracé_11951" data-name="Tracé 11951" d="M781.585,815.1H776.16v-1.609h7.393V825.16h-1.968Zm-.816-5.593a1.585,1.585,0,1,1,1.584,1.536A1.514,1.514,0,0,1,780.769,809.511Z"/>
        <path id="Tracé_11952" data-name="Tracé 11952" d="M790.633,813.495h1.632l.168,1.992h.1a5.992,5.992,0,0,1,4.393-2.28c2.76,0,4.032,1.632,4.032,4.7v7.249h-1.968v-6.984c0-2.208-.768-3.265-2.688-3.265-1.393,0-2.328.7-3.7,2.112v8.137h-1.968Z"/>
        <path id="Tracé_11953" data-name="Tracé 11953" d="M804.528,827.3a3.231,3.231,0,0,1,1.92-2.592v-.1a2.113,2.113,0,0,1-1.2-1.92,2.834,2.834,0,0,1,1.393-2.184v-.1a3.72,3.72,0,0,1-1.441-3.024,4.28,4.28,0,0,1,4.584-4.177,4.741,4.741,0,0,1,1.729.288h4.824V815.1h-3.025a3.517,3.517,0,0,1,.985,2.351c0,2.5-1.992,4.009-4.513,4.009a5.043,5.043,0,0,1-1.968-.432,1.607,1.607,0,0,0-.912,1.344c0,.912.889,1.344,2.425,1.344h2.616c3,0,4.44.768,4.44,2.736,0,2.185-2.52,4.081-6.481,4.081C806.5,830.537,804.528,829.36,804.528,827.3Zm9.913-.527c0-1.1-.888-1.416-2.665-1.416H809.5a6.592,6.592,0,0,1-1.776-.193c-1.1.6-1.489,1.273-1.489,1.944,0,1.224,1.321,1.993,3.817,1.993C812.761,829.1,814.441,827.969,814.441,826.769Zm-1.968-9.385a2.689,2.689,0,1,0-2.689,2.76A2.637,2.637,0,0,0,812.473,817.384Z"/>
        <path id="Tracé_11954" data-name="Tracé 11954" d="M839.184,815.1H833.76v-1.609h7.392V825.16h-1.968Zm-.816-5.593a1.585,1.585,0,1,1,1.584,1.536A1.514,1.514,0,0,1,838.368,809.511Z"/>
        <path id="Tracé_11955" data-name="Tracé 11955" d="M850.943,820.624V815.1h-3.288v-1.489l3.361-.12.263-3.744h1.633v3.744h5.736V815.1h-5.736v5.543c0,2.089.7,3.193,2.952,3.193a7.711,7.711,0,0,0,2.809-.528l.431,1.44a10.176,10.176,0,0,1-3.648.7C852.048,825.448,850.943,823.5,850.943,820.624Z"/>
      </g>
    </g>
  </g>
</svg>
