<svg xmlns="http://www.w3.org/2000/svg" xmlns:xlink="http://www.w3.org/1999/xlink" width="281" height="283" viewBox="0 0 281 283">
  <defs>
    <filter id="Rectangle_102" x="0" y="1" width="281" height="282" filterUnits="userSpaceOnUse">
      <feOffset dy="13" input="SourceAlpha"/>
      <feGaussianBlur stdDeviation="8" result="blur"/>
      <feFlood flood-opacity="0.161"/>
      <feComposite operator="in" in2="blur"/>
      <feComposite in="SourceGraphic"/>
    </filter>
  </defs>
  <g id="Groupe_1153" data-name="Groupe 1153" transform="translate(-7589 -9070)">
    <g id="Groupe_1152" data-name="Groupe 1152" transform="translate(351 -447)">
      <g id="Groupe_1148" data-name="Groupe 1148" transform="translate(6 -29)">
        <g id="Groupe_1096" data-name="Groupe 1096" transform="translate(3468 614)">
          <g transform="matrix(1, 0, 0, 1, 3764, 8932)" filter="url(#Rectangle_102)">
            <rect id="Rectangle_102-2" data-name="Rectangle 102" width="233" height="234" transform="translate(24 12)" fill="#fff"/>
          </g>
          <g id="NJS" transform="translate(3148.886 8305.191)" style="isolation: isolate">
            <g id="Groupe_1097" data-name="Groupe 1097" style="isolation: isolate">
              <path id="Tracé_11909" data-name="Tracé 11909" d="M734.773,768.773a9.142,9.142,0,0,1-2.21,6.436q-2.338,2.6-6.889,2.6h-3.835v-7.736H723.2q3.51,0,3.511-3.25V740.044H710.658v37.765h-7.995V740.044h-4.549v-7.865h15.794v-6.37h8.061v6.37h12.8Z" fill="rgba(255,255,255,0.87)"/>
              <path id="Tracé_11910" data-name="Tracé 11910" d="M765,754.408h-4.811v20.931a18.184,18.184,0,0,1-3.639,10.79,88.724,88.724,0,0,1-7.151,7.67l-4.419-5.07a40.4,40.4,0,0,0,4.94-5.46,12.2,12.2,0,0,0,2.34-6.89l-.066-21.971h-4.875v-7.994h4.745v-6.37h-4.745v-7.865H765v7.865h-5.005v6.37H765Z" fill="rgba(255,255,255,0.87)"/>
              <path id="Tracé_11911" data-name="Tracé 11911" d="M813.487,740.044H792.622q-3.705,0-5.3,1.4t-1.592,4.973h27.69v12.545q0,9.75-6.955,14.689-6.109,4.357-16.445,4.356-1.753,0-6.044-.13-3.9-.066-6.111-.065v-7.736h9.361q18.262,0,18.329-12.675l-.065-3.054H777.867v-9.62a12.263,12.263,0,0,1,3.705-9.231,12.111,12.111,0,0,1,8.645-3.314h23.27Z" fill="rgba(255,255,255,0.87)"/>
            </g>
          </g>
        </g>
      </g>
      <g id="NJS-2" data-name="NJS" transform="translate(7080.604 9214.741)" style="isolation: isolate">
        <g id="Groupe_1149" data-name="Groupe 1149" transform="translate(221.402 391.654)" style="isolation: isolate">
          <path id="Tracé_12134" data-name="Tracé 12134" d="M269.5,445.02a11.993,11.993,0,0,1-2.9,8.443q-3.07,3.41-9.039,3.41h-5.031V446.726h1.791q4.6,0,4.6-4.264V407.329H237.86v49.544H227.371V407.329H221.4V397.011h20.722v-8.357H252.7v8.357h16.8Z" transform="translate(-221.402 -388.654)" fill="#040405"/>
          <path id="Tracé_12135" data-name="Tracé 12135" d="M294.532,424.186h-6.31v27.461a23.85,23.85,0,0,1-4.777,14.156,116.417,116.417,0,0,1-9.379,10.062l-5.8-6.653a52.912,52.912,0,0,0,6.481-7.163,16,16,0,0,0,3.069-9.038l-.085-28.825h-6.4V413.7h6.226v-8.357h-6.226V395.024h23.2v10.318h-6.566V413.7h6.566Z" transform="translate(-206.784 -386.667)" fill="#040405"/>
          <path id="Tracé_12136" data-name="Tracé 12136" d="M347.885,405.342H320.514q-4.863,0-6.951,1.834t-2.089,6.523H347.8v16.458q0,12.793-9.124,19.272-8.017,5.715-21.574,5.715-2.3,0-7.931-.171-5.116-.087-8.017-.087V444.739h12.281q23.961,0,24.047-16.629L337.4,424.1H301.155V411.482a16.088,16.088,0,0,1,4.861-12.11,15.892,15.892,0,0,1,11.343-4.348h30.527Z" transform="translate(-196.526 -386.667)" fill="#040405"/>
        </g>
      </g>
    </g>
    <rect id="Rectangle_145" data-name="Rectangle 145" width="94" height="24" transform="translate(7683 9070)" fill="#ff33d8" opacity="0.278"/>
  </g>
</svg>
