<svg xmlns="http://www.w3.org/2000/svg" xmlns:xlink="http://www.w3.org/1999/xlink" width="281" height="291.869" viewBox="0 0 281 291.869">
  <defs>
    <filter id="Rectangle_103" x="0" y="9.869" width="281" height="282" filterUnits="userSpaceOnUse">
      <feOffset dy="13" input="SourceAlpha"/>
      <feGaussianBlur stdDeviation="8" result="blur"/>
      <feFlood flood-opacity="0.161"/>
      <feComposite operator="in" in2="blur"/>
      <feComposite in="SourceGraphic"/>
    </filter>
  </defs>
  <g id="Groupe_2997" data-name="Groupe 2997" transform="translate(-6424 -9437.131)">
    <g id="Groupe_2995" data-name="Groupe 2995" transform="translate(1846 514)">
      <g id="Groupe_1091" data-name="Groupe 1091" transform="translate(459 -95)">
        <g id="Groupe_1089" data-name="Groupe 1089" transform="translate(0 117)">
          <g transform="matrix(1, 0, 0, 1, 4119, 8901.13)" filter="url(#Rectangle_103)">
            <rect id="Rectangle_103-2" data-name="Rectangle 103" width="233" height="234" transform="translate(24 20.87)" fill="#fff"/>
          </g>
        </g>
        <rect id="Rectangle_104" data-name="Rectangle 104" width="94" height="24" transform="translate(4123.242 9074.701) rotate(-37)" fill="#ffbe0f" opacity="0.278"/>
      </g>
      <text id="In_progress_" data-name="In progress…" transform="translate(4632 9064)" fill="rgba(255,255,255,0.87)" font-size="24" font-family="SourceCodePro-Regular, Source Code Pro"><tspan x="0" y="0">In progress…</tspan></text>
    </g>
    <path id="whisk" d="M119.935,16.841,103.094,0,63.815,39.28,19.22,57.056l-.179.078c-1.1.512-2.993,1.593-3.205,1.715l-.084.05A32.938,32.938,0,1,0,56.214,110.3a54.9,54.9,0,0,0,4.712-5.95l.086-.124.076-.132c.121-.211,1.2-2.1,1.715-3.205L80.654,56.121ZM70.7,42.334,92.361,20.67l6.9,6.9L77.6,49.239ZM110,16.841l-5.766,5.766-6.906-6.9,5.767-5.767ZM14.6,68.69a26.023,26.023,0,0,1,4.777-3.772c.681-.39,1.906-1.069,2.546-1.375L64.854,46.428l.337.337L29.572,71.955A53.737,53.737,0,0,0,15.912,86.026,46.016,46.016,0,0,0,9.919,98.946,25.957,25.957,0,0,1,14.6,68.69ZM63.053,56.882,42.244,86.306c-6.554,9.268-16.58,15.991-26.257,17.642,1.651-9.677,8.374-19.7,17.642-26.257ZM56.392,98.014c-.294.613-.929,1.763-1.324,2.458a48.059,48.059,0,0,1-3.823,4.864,25.957,25.957,0,0,1-30.256,4.68,46.011,46.011,0,0,0,12.919-5.993A53.726,53.726,0,0,0,47.98,90.363L73.17,54.744l.337.337Zm0,0" transform="translate(6504.283 9518.282)"/>
  </g>
</svg>
