<svg id="Groupe_293" data-name="Groupe 293" xmlns="http://www.w3.org/2000/svg" width="155.965" height="228.111" viewBox="0 0 155.965 228.111">
  <g id="Groupe_231" data-name="Groupe 231" transform="translate(0 0)">
    <path id="Tracé_186" data-name="Tracé 186" d="M1287.6,454.7l15.542,96.276h49.045l1.633-10.341,13.909-85.935Z" transform="translate(-1238.192 -322.865)" fill="#f1f2f2"/>
    <path id="Tracé_187" data-name="Tracé 187" d="M1353.8,399.483s2.3-74.565,58.963-84.483c0,0-38.764,28.967-38.764,84.483Z" transform="translate(-1264.358 -267.648)" fill="#63a69f"/>
    <path id="Tracé_188" data-name="Tracé 188" d="M1381.712,410.565s8.224-69.365,44.026-56.907c0,0-37.918-47.049-58.237,56.907Z" transform="translate(-1269.773 -278.73)" fill="#7fc6bc"/>
    <path id="Tracé_189" data-name="Tracé 189" d="M1274.72,410.565s-12.881-69.365-68.82-56.907c0,0,59.326-47.049,91.136,56.907Z" transform="translate(-1205.9 -278.73)" fill="#7fc6bc"/>
    <path id="Tracé_190" data-name="Tracé 190" d="M1327.635,399.483s.121-60.535-40.034-84.483c0,0,20.017,41.425,20.017,84.483Z" transform="translate(-1238.192 -267.648)" fill="#63a69f"/>
    <path id="Tracé_191" data-name="Tracé 191" d="M1329.8,399.483s-.121-60.535,40.034-84.483c0,0-20.017,41.425-20.017,84.483Z" transform="translate(-1254.872 -267.648)" fill="#7fc6bc"/>
    <path id="Tracé_192" data-name="Tracé 192" d="M1274.428,399.4s-2-79.283-41.728-84.483c0,0,46.989-6.955,60.293,84.483Z" transform="translate(-1216.493 -267.569)" fill="#7fc6bc"/>
    <path id="Tracé_193" data-name="Tracé 193" d="M1331.641,368.535s-11.551-84.6,43.542-131.835c0,0-37.192,49.771-22.315,131.835Z" transform="translate(-1255.201 -236.7)" fill="#63a69f"/>
  </g>
  <path id="Tracé_194" data-name="Tracé 194" d="M1287.6,454.7l15.482,96.216h49.045l1.633-10.281c-18.868-31.205-23.222-68.941-24.25-85.935Z" transform="translate(-1238.192 -322.865)" fill="#e6e7e8"/>
</svg>
