<svg xmlns="http://www.w3.org/2000/svg" xmlns:xlink="http://www.w3.org/1999/xlink" width="1727.37" height="895.36" viewBox="0 0 1727.37 895.36">
  <defs>
    <clipPath id="clip-iPhone_6_7_8_Plus_1">
      <rect width="1727.37" height="895.36"/>
    </clipPath>
  </defs>
  <g id="iPhone_6_7_8_Plus_1" data-name="iPhone 6/7/8 Plus – 1" clip-path="url(#clip-iPhone_6_7_8_Plus_1)">
    <g id="Groupe_1099" data-name="Groupe 1099" transform="translate(-2382 -3882)">
      <g id="Layer_4" transform="translate(2475.55 3996.743)">
        <g id="Groupe_28" data-name="Groupe 28">
          <g id="Groupe_9" data-name="Groupe 9" transform="translate(869.086 78.816)">
            <g id="Groupe_8" data-name="Groupe 8">
              <path id="Tracé_10" data-name="Tracé 10" d="M419.959,78.549,432.5,65.687,418.978,76.733l-.657-16.895L416.884,76.31,404.144,65.687l12.6,12.583-18.485,1.615h17.782l-11.9,14.191,13.438-13.159.739,19L419.4,81.063l13.1,13.013L420.513,79.885h17.869Z" transform="translate(-398.264 -59.838)" fill="#fff"/>
            </g>
          </g>
          <g id="Groupe_11" data-name="Groupe 11" transform="translate(233.056 47.92)">
            <g id="Groupe_10" data-name="Groupe 10">
              <path id="Tracé_11" data-name="Tracé 11" d="M154.85,65.671l12.538-12.862L153.871,63.855l-.66-16.895-1.435,16.472L139.035,52.809,151.64,65.393l-18.485,1.615h17.782L139.035,81.2l13.44-13.159.737,19,1.075-18.857,13.1,13.013L155.4,67.007h17.869Z" transform="translate(-133.155 -46.96)" fill="#fff"/>
            </g>
          </g>
          <g id="Groupe_13" data-name="Groupe 13" transform="translate(1491.446 172.684)">
            <g id="Groupe_12" data-name="Groupe 12" transform="translate(0 0)">
              <path id="Tracé_12" data-name="Tracé 12" d="M679.37,117.675l12.538-12.862-13.517,11.046-.66-16.895L676.3,115.436l-12.742-10.623,12.6,12.581-18.485,1.617h17.782l-11.9,14.191L677,120.043l.736,19,1.075-18.857,13.1,13.013-11.984-14.191h17.869Z" transform="translate(-657.675 -98.964)" fill="#fff"/>
            </g>
          </g>
          <g id="Groupe_15" data-name="Groupe 15" transform="translate(764.642 332.365)">
            <g id="Groupe_14" data-name="Groupe 14">
              <path id="Tracé_13" data-name="Tracé 13" d="M366.723,175.865l6.931-7.109-7.471,6.106-.365-9.34-.794,9.107-7.044-5.873,6.969,6.955-10.22.895h9.832l-6.581,7.843,7.43-7.274.408,10.506.6-10.424,7.241,7.193-6.624-7.843h9.88Z" transform="translate(-354.73 -165.522)" fill="#fff"/>
            </g>
          </g>
          <g id="Groupe_17" data-name="Groupe 17" transform="translate(349.246 358.547)">
            <g id="Groupe_16" data-name="Groupe 16">
              <path id="Tracé_14" data-name="Tracé 14" d="M193.578,186.778l6.931-7.111-7.471,6.106-.365-9.337-.794,9.1-7.044-5.873,6.969,6.955-10.22.895h9.832l-6.581,7.843,7.43-7.274.408,10.506.6-10.424,7.241,7.193-6.624-7.843h9.88Z" transform="translate(-181.585 -176.435)" fill="#fff"/>
            </g>
          </g>
          <g id="Groupe_19" data-name="Groupe 19" transform="translate(0 354.521)">
            <g id="Groupe_18" data-name="Groupe 18">
              <path id="Tracé_15" data-name="Tracé 15" d="M48.006,185.1l6.929-7.111L47.464,184.1l-.365-9.34-.794,9.107-7.041-5.875,6.967,6.957-10.218.893h9.829l-6.578,7.845,7.428-7.274.408,10.506.595-10.427,7.241,7.195-6.622-7.845h9.877Z" transform="translate(-36.013 -174.757)" fill="#fff"/>
            </g>
          </g>
          <g id="Groupe_21" data-name="Groupe 21" transform="translate(657.541)">
            <g id="Groupe_20" data-name="Groupe 20">
              <path id="Tracé_16" data-name="Tracé 16" d="M322.081,37.329l6.931-7.111-7.473,6.108-.365-9.34-.794,9.107-7.041-5.875,6.967,6.957-10.218.892h9.829l-6.578,7.845,7.43-7.274.405,10.506.595-10.427,7.243,7.195-6.624-7.845h9.877Z" transform="translate(-310.088 -26.986)" fill="#fff"/>
            </g>
          </g>
          <g id="Groupe_23" data-name="Groupe 23" transform="translate(1436.662 430.168)">
            <g id="Groupe_22" data-name="Groupe 22">
              <path id="Tracé_17" data-name="Tracé 17" d="M646.833,216.631l6.931-7.111-7.473,6.106-.365-9.337-.792,9.1-7.044-5.873,6.969,6.955-10.22.895h9.832l-6.581,7.843,7.428-7.274.408,10.506.595-10.424,7.243,7.193-6.624-7.843h9.877Z" transform="translate(-634.84 -206.288)" fill="#fff"/>
            </g>
          </g>
          <g id="Groupe_25" data-name="Groupe 25" transform="translate(1130.768 465.181)">
            <g id="Groupe_24" data-name="Groupe 24">
              <path id="Tracé_18" data-name="Tracé 18" d="M519.331,231.225l6.931-7.111-7.473,6.106-.365-9.337-.792,9.1-7.044-5.873,6.969,6.955-10.22.895h9.832l-6.581,7.845,7.428-7.277.408,10.506.595-10.424,7.243,7.2-6.624-7.845h9.877Z" transform="translate(-507.338 -220.882)" fill="#fff"/>
            </g>
          </g>
          <g id="Groupe_27" data-name="Groupe 27" transform="translate(1130.768 55.221)">
            <g id="Groupe_26" data-name="Groupe 26">
              <path id="Tracé_19" data-name="Tracé 19" d="M519.331,60.346l6.931-7.111-7.473,6.108L518.424,50l-.792,9.1-7.044-5.873,6.969,6.957-10.22.892h9.832l-6.581,7.845,7.428-7.277.408,10.506.595-10.424,7.243,7.195-6.624-7.845h9.877Z" transform="translate(-507.338 -50.003)" fill="#fff"/>
            </g>
          </g>
        </g>
      </g>
      <g id="Layer_5" transform="translate(2441.815 4007.822)">
        <g id="Groupe_89" data-name="Groupe 89" opacity="0.8">
          <circle id="Ellipse_2" data-name="Ellipse 2" cx="3.599" cy="3.599" r="3.599" transform="translate(267.815 288.32)" fill="#fff"/>
          <g id="Groupe_88" data-name="Groupe 88">
            <g id="Groupe_59" data-name="Groupe 59" transform="translate(0 31.534)">
              <g id="Groupe_29" data-name="Groupe 29" transform="translate(93.851 423.813)">
                <circle id="Ellipse_3" data-name="Ellipse 3" cx="3.599" cy="3.599" r="3.599" fill="#fff"/>
              </g>
              <g id="Groupe_30" data-name="Groupe 30" transform="translate(375.602 405.546)">
                <circle id="Ellipse_4" data-name="Ellipse 4" cx="3.599" cy="3.599" r="3.599" fill="#fff"/>
              </g>
              <g id="Groupe_31" data-name="Groupe 31" transform="translate(440.842 210.104)">
                <circle id="Ellipse_5" data-name="Ellipse 5" cx="3.599" cy="3.599" r="3.599" fill="#fff"/>
              </g>
              <g id="Groupe_32" data-name="Groupe 32" transform="translate(647.767 213.285)">
                <circle id="Ellipse_6" data-name="Ellipse 6" cx="3.599" cy="3.599" r="3.599" fill="#fff"/>
              </g>
              <g id="Groupe_33" data-name="Groupe 33" transform="translate(743.396 354.996)">
                <circle id="Ellipse_7" data-name="Ellipse 7" cx="3.599" cy="3.599" r="3.599" transform="translate(0 0)" fill="#fff"/>
              </g>
              <g id="Groupe_34" data-name="Groupe 34" transform="translate(669.366 384.095)">
                <circle id="Ellipse_8" data-name="Ellipse 8" cx="3.599" cy="3.599" r="3.599" transform="translate(0 0)" fill="#fff"/>
              </g>
              <g id="Groupe_35" data-name="Groupe 35" transform="translate(873.253 322.987)">
                <circle id="Ellipse_9" data-name="Ellipse 9" cx="3.599" cy="3.599" r="3.599" fill="#fff"/>
              </g>
              <g id="Groupe_36" data-name="Groupe 36" transform="translate(1023.942 254.401)">
                <circle id="Ellipse_10" data-name="Ellipse 10" cx="3.599" cy="3.599" r="3.599" fill="#fff"/>
              </g>
              <g id="Groupe_37" data-name="Groupe 37" transform="translate(1125.063 188.387)">
                <circle id="Ellipse_11" data-name="Ellipse 11" cx="3.599" cy="3.599" r="3.599" fill="#fff"/>
              </g>
              <g id="Groupe_38" data-name="Groupe 38" transform="translate(1256.775 208.878)">
                <circle id="Ellipse_12" data-name="Ellipse 12" cx="3.599" cy="3.599" r="3.599" fill="#fff"/>
              </g>
              <g id="Groupe_39" data-name="Groupe 39" transform="translate(1270.002 241.887)">
                <circle id="Ellipse_13" data-name="Ellipse 13" cx="3.599" cy="3.599" r="3.599" fill="#fff"/>
              </g>
              <g id="Groupe_40" data-name="Groupe 40" transform="translate(1249.571 327.011)">
                <circle id="Ellipse_14" data-name="Ellipse 14" cx="3.599" cy="3.599" r="3.599" transform="translate(0 0)" fill="#fff"/>
              </g>
              <g id="Groupe_41" data-name="Groupe 41" transform="translate(1224.949 360.495)">
                <circle id="Ellipse_15" data-name="Ellipse 15" cx="3.599" cy="3.599" r="3.599" fill="#fff"/>
              </g>
              <g id="Groupe_42" data-name="Groupe 42" transform="translate(1214.906 351.256)">
                <circle id="Ellipse_16" data-name="Ellipse 16" cx="3.599" cy="3.599" r="3.599" transform="translate(0 0)" fill="#fff"/>
              </g>
              <g id="Groupe_43" data-name="Groupe 43" transform="translate(0 150.113)">
                <circle id="Ellipse_17" data-name="Ellipse 17" cx="3.599" cy="3.599" r="3.599" fill="#fff"/>
              </g>
              <g id="Groupe_44" data-name="Groupe 44" transform="translate(44.823 97.632)">
                <circle id="Ellipse_18" data-name="Ellipse 18" cx="3.599" cy="3.599" r="3.599" fill="#fff"/>
              </g>
              <g id="Groupe_45" data-name="Groupe 45" transform="translate(232.154)">
                <circle id="Ellipse_19" data-name="Ellipse 19" cx="3.599" cy="3.599" r="3.599" fill="#fff"/>
              </g>
              <g id="Groupe_46" data-name="Groupe 46" transform="translate(441.149 24.082)">
                <circle id="Ellipse_20" data-name="Ellipse 20" cx="3.599" cy="3.599" r="3.599" fill="#fff"/>
              </g>
              <g id="Groupe_47" data-name="Groupe 47" transform="translate(514.445 78.941)">
                <circle id="Ellipse_21" data-name="Ellipse 21" cx="3.599" cy="3.599" r="3.599" fill="#fff"/>
              </g>
              <g id="Groupe_48" data-name="Groupe 48" transform="translate(702.364 103.585)">
                <circle id="Ellipse_22" data-name="Ellipse 22" cx="3.599" cy="3.599" r="3.599" fill="#fff"/>
              </g>
              <g id="Groupe_49" data-name="Groupe 49" transform="translate(832.749 82.062)">
                <circle id="Ellipse_23" data-name="Ellipse 23" cx="3.599" cy="3.599" r="3.599" fill="#fff"/>
              </g>
              <g id="Groupe_50" data-name="Groupe 50" transform="translate(980.753 63.826)">
                <circle id="Ellipse_24" data-name="Ellipse 24" cx="3.599" cy="3.599" r="3.599" fill="#fff"/>
              </g>
              <g id="Groupe_51" data-name="Groupe 51" transform="translate(1175.591 74.296)">
                <circle id="Ellipse_25" data-name="Ellipse 25" cx="3.599" cy="3.599" r="3.599" fill="#fff"/>
              </g>
              <g id="Groupe_52" data-name="Groupe 52" transform="translate(1270.743 82.105)">
                <circle id="Ellipse_26" data-name="Ellipse 26" cx="3.599" cy="3.599" r="3.599" fill="#fff"/>
              </g>
              <g id="Groupe_53" data-name="Groupe 53" transform="translate(1360.715 83.518)">
                <circle id="Ellipse_27" data-name="Ellipse 27" cx="3.599" cy="3.599" r="3.599" fill="#fff"/>
              </g>
              <g id="Groupe_54" data-name="Groupe 54" transform="translate(1407.671 77.513)">
                <circle id="Ellipse_28" data-name="Ellipse 28" cx="3.599" cy="3.599" r="3.599" fill="#fff"/>
              </g>
              <g id="Groupe_55" data-name="Groupe 55" transform="translate(1426.096 71.137)">
                <circle id="Ellipse_29" data-name="Ellipse 29" cx="3.599" cy="3.599" r="3.599" fill="#fff"/>
              </g>
              <g id="Groupe_56" data-name="Groupe 56" transform="translate(1057.453 523.415)">
                <circle id="Ellipse_30" data-name="Ellipse 30" cx="3.599" cy="3.599" r="3.599" fill="#fff"/>
              </g>
              <g id="Groupe_57" data-name="Groupe 57" transform="translate(659.225 493.973)">
                <circle id="Ellipse_31" data-name="Ellipse 31" cx="3.599" cy="3.599" r="3.599" fill="#fff"/>
              </g>
              <g id="Groupe_58" data-name="Groupe 58" transform="translate(538.63 445.82)">
                <circle id="Ellipse_32" data-name="Ellipse 32" cx="3.599" cy="3.599" r="3.599" fill="#fff"/>
              </g>
            </g>
            <g id="Groupe_87" data-name="Groupe 87" transform="translate(725.978)">
              <g id="Groupe_60" data-name="Groupe 60" transform="translate(342.178)">
                <circle id="Ellipse_33" data-name="Ellipse 33" cx="1.663" cy="1.663" r="1.663" fill="#fff"/>
              </g>
              <g id="Groupe_61" data-name="Groupe 61" transform="translate(490.254 29.02)">
                <circle id="Ellipse_34" data-name="Ellipse 34" cx="1.663" cy="1.663" r="1.663" fill="#fff"/>
              </g>
              <g id="Groupe_62" data-name="Groupe 62" transform="translate(680.752 36.143)">
                <circle id="Ellipse_35" data-name="Ellipse 35" cx="1.663" cy="1.663" r="1.663" fill="#fff"/>
              </g>
              <g id="Groupe_63" data-name="Groupe 63" transform="translate(767.152 61.698)">
                <circle id="Ellipse_36" data-name="Ellipse 36" cx="1.663" cy="1.663" r="1.663" fill="#fff"/>
              </g>
              <g id="Groupe_64" data-name="Groupe 64" transform="translate(834.402 61.83)">
                <circle id="Ellipse_37" data-name="Ellipse 37" cx="1.663" cy="1.663" r="1.663" fill="#fff"/>
              </g>
              <g id="Groupe_65" data-name="Groupe 65" transform="translate(858.208 55.221)">
                <circle id="Ellipse_38" data-name="Ellipse 38" cx="1.663" cy="1.663" r="1.663" fill="#fff"/>
              </g>
              <g id="Groupe_66" data-name="Groupe 66" transform="translate(867.507 67.708)">
                <circle id="Ellipse_39" data-name="Ellipse 39" cx="1.663" cy="1.663" r="1.663" fill="#fff"/>
              </g>
              <g id="Groupe_67" data-name="Groupe 67" transform="translate(891.455 65.566)">
                <circle id="Ellipse_40" data-name="Ellipse 40" cx="1.663" cy="1.663" r="1.663" fill="#fff"/>
              </g>
              <g id="Groupe_68" data-name="Groupe 68" transform="translate(859.18 256.287)">
                <circle id="Ellipse_41" data-name="Ellipse 41" cx="1.663" cy="1.663" r="1.663" fill="#fff"/>
              </g>
              <g id="Groupe_69" data-name="Groupe 69" transform="translate(848.557 329.04)">
                <circle id="Ellipse_42" data-name="Ellipse 42" cx="1.663" cy="1.663" r="1.663" fill="#fff"/>
              </g>
              <g id="Groupe_70" data-name="Groupe 70" transform="translate(847.292 322.956)">
                <circle id="Ellipse_43" data-name="Ellipse 43" cx="1.663" cy="1.663" r="1.663" fill="#fff"/>
              </g>
              <g id="Groupe_71" data-name="Groupe 71" transform="translate(932.639 401.146)">
                <circle id="Ellipse_44" data-name="Ellipse 44" cx="1.663" cy="1.663" r="1.663" fill="#fff"/>
              </g>
              <g id="Groupe_72" data-name="Groupe 72" transform="translate(920.898 432.176)">
                <circle id="Ellipse_45" data-name="Ellipse 45" cx="1.663" cy="1.663" r="1.663" fill="#fff"/>
              </g>
              <g id="Groupe_73" data-name="Groupe 73" transform="translate(832.73 539.756)">
                <circle id="Ellipse_46" data-name="Ellipse 46" cx="1.663" cy="1.663" r="1.663" fill="#fff"/>
              </g>
              <g id="Groupe_74" data-name="Groupe 74" transform="translate(814.096 539.602)">
                <circle id="Ellipse_47" data-name="Ellipse 47" cx="1.663" cy="1.663" r="1.663" fill="#fff"/>
              </g>
              <g id="Groupe_75" data-name="Groupe 75" transform="translate(718.478 583.067)">
                <circle id="Ellipse_48" data-name="Ellipse 48" cx="1.663" cy="1.663" r="1.663" fill="#fff"/>
              </g>
              <g id="Groupe_76" data-name="Groupe 76" transform="translate(556.441 490.9)">
                <circle id="Ellipse_49" data-name="Ellipse 49" cx="1.663" cy="1.663" r="1.663" fill="#fff"/>
              </g>
              <g id="Groupe_77" data-name="Groupe 77" transform="translate(37.861 485.761)">
                <circle id="Ellipse_50" data-name="Ellipse 50" cx="1.663" cy="1.663" r="1.663" fill="#fff"/>
              </g>
              <g id="Groupe_78" data-name="Groupe 78" transform="translate(196.901 461.853)">
                <circle id="Ellipse_51" data-name="Ellipse 51" cx="1.663" cy="1.663" r="1.663" fill="#fff"/>
              </g>
              <g id="Groupe_79" data-name="Groupe 79" transform="translate(256.654 521.908)">
                <circle id="Ellipse_52" data-name="Ellipse 52" cx="1.663" cy="1.663" r="1.663" fill="#fff"/>
              </g>
              <g id="Groupe_80" data-name="Groupe 80" transform="translate(185.846 580.087)">
                <circle id="Ellipse_53" data-name="Ellipse 53" cx="1.663" cy="1.663" r="1.663" fill="#fff"/>
              </g>
              <g id="Groupe_81" data-name="Groupe 81" transform="translate(0 551.773)">
                <circle id="Ellipse_54" data-name="Ellipse 54" cx="1.663" cy="1.663" r="1.663" fill="#fff"/>
              </g>
              <g id="Groupe_82" data-name="Groupe 82" transform="translate(78.91 548.404)">
                <circle id="Ellipse_55" data-name="Ellipse 55" cx="1.663" cy="1.663" r="1.663" fill="#fff"/>
              </g>
              <g id="Groupe_83" data-name="Groupe 83" transform="translate(132.609 534.842)">
                <circle id="Ellipse_56" data-name="Ellipse 56" cx="1.663" cy="1.663" r="1.663" fill="#fff"/>
              </g>
              <g id="Groupe_84" data-name="Groupe 84" transform="translate(144.214 544.22)">
                <circle id="Ellipse_57" data-name="Ellipse 57" cx="1.663" cy="1.663" r="1.663" fill="#fff"/>
              </g>
              <g id="Groupe_85" data-name="Groupe 85" transform="translate(147.594 559.481)">
                <circle id="Ellipse_58" data-name="Ellipse 58" cx="1.663" cy="1.663" r="1.663" fill="#fff"/>
              </g>
              <g id="Groupe_86" data-name="Groupe 86" transform="translate(41.277 560.023)">
                <circle id="Ellipse_59" data-name="Ellipse 59" cx="1.663" cy="1.663" r="1.663" fill="#fff"/>
              </g>
            </g>
          </g>
        </g>
      </g>
    </g>
  </g>
</svg>
