<svg height="512pt" viewBox="0 0 512 512" width="512pt" xmlns="http://www.w3.org/2000/svg"><path d="m512 71.894531-71.894531-71.894531-167.679688 167.683594-190.375 75.886718-.765625.332032c-4.710937 2.1875-12.777344 6.800781-13.683594 7.320312l-.359374.214844c-9.460938 5.789062-18.25 12.714844-26.125 20.589844-54.824219 54.824218-54.824219 144.027344 0 198.855468 27.414062 27.410157 63.421874 41.117188 99.429687 41.117188s72.015625-13.707031 99.429687-41.117188c7.910157-7.910156 18.890626-23.628906 20.113282-25.398437l.367187-.527344.324219-.5625c.515625-.902343 5.132812-8.972656 7.320312-13.683593l76.210938-191.132813zm-210.199219 108.828125 92.484375-92.484375 29.476563 29.476563-92.484375 92.484375zm167.785157-108.828125-24.613282 24.613281-29.480468-29.476562 24.617187-24.617188zm-407.261719 221.339844c6.152343-6.152344 13.011719-11.570313 20.390625-16.101563 2.90625-1.664062 8.136718-4.5625 10.867187-5.871093l183.28125-73.0625 1.4375 1.4375-152.054687 107.535156c-22.835938 16.148437-43 36.921875-58.316406 60.070313-11.671876 17.644531-20.355469 36.414062-25.582032 55.152343-21.578125-41.660156-14.921875-94.265625 19.976563-129.160156zm206.847656-50.40625-88.832031 125.609375c-27.980469 39.5625-70.777344 68.265625-112.089844 75.3125 7.046875-41.3125 35.75-84.109375 75.3125-112.089844zm-28.433594 175.589844c-1.253906 2.617187-3.964843 7.527343-5.652343 10.492187-3.21875 4.59375-11.417969 15.863282-16.320313 20.765625-34.898437 34.898438-87.5 41.554688-129.160156 19.976563 18.734375-5.226563 37.507812-13.910156 55.148437-25.582032 23.152344-15.316406 43.925782-35.480468 60.074219-58.316406l107.535156-152.054687 1.4375 1.4375zm0 0"/></svg>