<svg xmlns="http://www.w3.org/2000/svg" width="784.9" height="786.899" viewBox="0 0 784.9 786.899">
  <g id="Groupe_3202" data-name="Groupe 3202" transform="translate(-3983.3 -10799.2)">
    <g id="Groupe_3198" data-name="Groupe 3198" transform="translate(-1849 -317)">
      <g id="Groupe_1125" data-name="Groupe 1125" transform="translate(-224 124)">
        <g id="_09" data-name="09" transform="translate(5748 10687)">
          <g id="Groupe_1110" data-name="Groupe 1110">
            <rect id="Rectangle_112" data-name="Rectangle 112" width="784.9" height="65" transform="translate(308.3 305.2)" fill="#e7dada"/>
            <rect id="Rectangle_113" data-name="Rectangle 113" width="784.9" height="607.8" transform="translate(308.3 484.3)" fill="#e7dada"/>
            <rect id="Rectangle_114" data-name="Rectangle 114" width="784.9" height="114.1" transform="translate(308.3 370.2)" fill="#bcb0af"/>
          </g>
          <path id="Tracé_11970" data-name="Tracé 11970" d="M379.6,337.7a11.928,11.928,0,0,1-11.9,11.9h0a11.928,11.928,0,0,1-11.9-11.9h0a11.928,11.928,0,0,1,11.9-11.9h0a11.993,11.993,0,0,1,11.9,11.9Z" fill="#928585"/>
          <path id="Tracé_11971" data-name="Tracé 11971" d="M446.1,337.7a11.928,11.928,0,0,1-11.9,11.9h0a11.928,11.928,0,0,1-11.9-11.9h0a11.928,11.928,0,0,1,11.9-11.9h0a12.06,12.06,0,0,1,11.9,11.9Z" fill="#928585"/>
          <path id="Tracé_11972" data-name="Tracé 11972" d="M512.5,337.7a11.928,11.928,0,0,1-11.9,11.9h0a11.928,11.928,0,0,1-11.9-11.9h0a11.928,11.928,0,0,1,11.9-11.9h0a11.993,11.993,0,0,1,11.9,11.9Z" fill="#928585"/>
          <path id="Tracé_11973" data-name="Tracé 11973" d="M579,337.7a11.928,11.928,0,0,1-11.9,11.9h0a11.928,11.928,0,0,1-11.9-11.9h0a11.928,11.928,0,0,1,11.9-11.9h0A12.06,12.06,0,0,1,579,337.7Z" fill="#928585"/>
          <path id="Tracé_11974" data-name="Tracé 11974" d="M645.4,337.7a11.928,11.928,0,0,1-11.9,11.9h0a11.928,11.928,0,0,1-11.9-11.9h0a11.928,11.928,0,0,1,11.9-11.9h0a11.993,11.993,0,0,1,11.9,11.9Z" fill="#928585"/>
          <path id="Tracé_11975" data-name="Tracé 11975" d="M711.9,337.7A11.928,11.928,0,0,1,700,349.6h0a11.928,11.928,0,0,1-11.9-11.9h0A11.928,11.928,0,0,1,700,325.8h0a12.06,12.06,0,0,1,11.9,11.9Z" fill="#928585"/>
          <path id="Tracé_11976" data-name="Tracé 11976" d="M778.3,337.7a11.928,11.928,0,0,1-11.9,11.9h0a11.928,11.928,0,0,1-11.9-11.9h0a11.928,11.928,0,0,1,11.9-11.9h0a11.993,11.993,0,0,1,11.9,11.9Z" fill="#928585"/>
          <path id="Tracé_11977" data-name="Tracé 11977" d="M844.8,337.7a11.928,11.928,0,0,1-11.9,11.9h0A11.928,11.928,0,0,1,821,337.7h0a11.928,11.928,0,0,1,11.9-11.9h0a11.993,11.993,0,0,1,11.9,11.9Z" fill="#928585"/>
          <path id="Tracé_11978" data-name="Tracé 11978" d="M911.2,337.7a11.928,11.928,0,0,1-11.9,11.9h0a11.928,11.928,0,0,1-11.9-11.9h0a11.928,11.928,0,0,1,11.9-11.9h0a11.993,11.993,0,0,1,11.9,11.9Z" fill="#928585"/>
          <path id="Tracé_11979" data-name="Tracé 11979" d="M977.7,337.7a11.928,11.928,0,0,1-11.9,11.9h0a11.928,11.928,0,0,1-11.9-11.9h0a11.928,11.928,0,0,1,11.9-11.9h0a11.993,11.993,0,0,1,11.9,11.9Z" fill="#928585"/>
          <path id="Tracé_11980" data-name="Tracé 11980" d="M449.1,430.3a11.928,11.928,0,0,1-11.9,11.9h0a11.928,11.928,0,0,1-11.9-11.9h0a11.928,11.928,0,0,1,11.9-11.9h0a11.993,11.993,0,0,1,11.9,11.9Z" fill="#e7dada"/>
          <path id="Tracé_11981" data-name="Tracé 11981" d="M980.7,430.3a11.928,11.928,0,0,1-11.9,11.9h0a11.928,11.928,0,0,1-11.9-11.9h0a11.928,11.928,0,0,1,11.9-11.9h0a11.993,11.993,0,0,1,11.9,11.9Z" fill="#e7dada"/>
          <path id="Tracé_11982" data-name="Tracé 11982" d="M446.1,427.3a11.928,11.928,0,0,1-11.9,11.9h0a11.928,11.928,0,0,1-11.9-11.9h0a11.928,11.928,0,0,1,11.9-11.9h0a11.928,11.928,0,0,1,11.9,11.9Z" fill="#fff"/>
          <path id="Tracé_11983" data-name="Tracé 11983" d="M977.7,427.3a11.928,11.928,0,0,1-11.9,11.9h0a11.928,11.928,0,0,1-11.9-11.9h0a11.928,11.928,0,0,1,11.9-11.9h0a11.865,11.865,0,0,1,11.9,11.9Z" fill="#fff"/>
          <path id="Tracé_11984" data-name="Tracé 11984" d="M1044.1,337.7a11.928,11.928,0,0,1-11.9,11.9h0a11.928,11.928,0,0,1-11.9-11.9h0a11.928,11.928,0,0,1,11.9-11.9h0a11.993,11.993,0,0,1,11.9,11.9Z" fill="#928585"/>
          <rect id="Rectangle_121" data-name="Rectangle 121" width="742.7" height="389.9" transform="translate(328.5 505.1)" fill="#928585"/>
          <rect id="Rectangle_122" data-name="Rectangle 122" width="742.8" height="142.9" transform="translate(328.5 921.6)" fill="#928585"/>
          <path id="Tracé_11985" data-name="Tracé 11985" d="M1058.384,505.1V886.8H328.5v8.1h742.8V505.1Z" transform="translate(0 0)" fill="#7c7272"/>
          <path id="Tracé_11988" data-name="Tracé 11988" d="M1058.171,921.6v134.7H328.5v8.2h742.9V921.6Z" transform="translate(0 0)" fill="#7c7272"/>
        </g>
      </g>
    </g>
    <g id="THIS_IS_JUST_A_3D_CSS_TEST_xoxo" data-name="THIS IS JUST A 3D CSS TEST xoxo" transform="translate(4275.745 10588.66)" style="isolation: isolate">
      <g id="Groupe_3199" data-name="Groupe 3199" style="isolation: isolate">
        <path id="Tracé_16366" data-name="Tracé 16366" d="M-144.928,529.59V474.278h-13.811V467.34h41.5v6.938h-13.812V529.59Z" fill="#fff"/>
        <path id="Tracé_16367" data-name="Tracé 16367" d="M-110.3,529.59V467.34h13.812v27.688h13.876V467.34H-68.8v62.25H-82.613V501.9H-96.489V529.59Z" fill="#fff"/>
        <path id="Tracé_16368" data-name="Tracé 16368" d="M-48.117,529.59V467.34h13.845v62.25Z" fill="#fff"/>
        <path id="Tracé_16369" data-name="Tracé 16369" d="M21.072,481.151H14.2q-.907-6.937-6.549-6.938a7.689,7.689,0,0,0-5.479,1.751,6.86,6.86,0,0,0-1.848,5.22,7.16,7.16,0,0,0,2.042,4.863l14.655,16.471a14.419,14.419,0,0,1,4.053,9.758v3.5a13.347,13.347,0,0,1-4.053,9.71,13.222,13.222,0,0,1-9.759,4.1H.322q-6.875,0-10.343-3.469t-3.469-10.343h6.938q-.064.714-.065,1.135a4.825,4.825,0,0,0,2.173,4.279,8.363,8.363,0,0,0,4.766,1.459q3.7,0,5.317-1.783a7.458,7.458,0,0,0,1.621-5.187,7.085,7.085,0,0,0-2.043-4.864l-14.654-16.4a14.34,14.34,0,0,1-4.053-9.759v-3.5a13.334,13.334,0,0,1,4.053-9.726A13.247,13.247,0,0,1,.322,467.34H7.26Q20.229,467.34,21.072,481.151Z" fill="#fff"/>
        <path id="Tracé_16370" data-name="Tracé 16370" d="M62.084,529.59V467.34H75.929v62.25Z" fill="#fff"/>
        <path id="Tracé_16371" data-name="Tracé 16371" d="M131.273,481.151H124.4q-.908-6.937-6.549-6.938a7.689,7.689,0,0,0-5.479,1.751,6.86,6.86,0,0,0-1.848,5.22,7.165,7.165,0,0,0,2.042,4.863l14.655,16.471a14.419,14.419,0,0,1,4.053,9.758v3.5a13.923,13.923,0,0,1-13.812,13.812h-6.938q-6.875,0-10.343-3.469t-3.469-10.343h6.938q-.064.714-.065,1.135a4.827,4.827,0,0,0,2.173,4.279,8.366,8.366,0,0,0,4.766,1.459q3.7,0,5.317-1.783a7.458,7.458,0,0,0,1.621-5.187,7.085,7.085,0,0,0-2.043-4.864l-14.654-16.4a14.34,14.34,0,0,1-4.053-9.759v-3.5a13.893,13.893,0,0,1,13.812-13.811h6.938Q130.43,467.34,131.273,481.151Z" fill="#fff"/>
        <path id="Tracé_16372" data-name="Tracé 16372" d="M199.975,467.34v48.438q0,6.873-3.469,10.343t-10.343,3.469H172.286q-6.873,0-10.343-3.469t-3.468-10.343V501.9h13.811v13.877a6.566,6.566,0,0,0,2.059,4.847,6.908,6.908,0,0,0,9.775,0,6.588,6.588,0,0,0,2.043-4.847V467.34Z" fill="#fff"/>
        <path id="Tracé_16373" data-name="Tracé 16373" d="M241.539,467.34h13.812v48.438a13.953,13.953,0,0,1-13.812,13.812H227.662a13.892,13.892,0,0,1-13.811-13.812V467.34h13.811v48.438a6.939,6.939,0,0,0,13.877,0Z" fill="#fff"/>
        <path id="Tracé_16374" data-name="Tracé 16374" d="M303.724,481.151h-6.873q-.909-6.937-6.55-6.938a7.693,7.693,0,0,0-5.48,1.751,6.864,6.864,0,0,0-1.847,5.22,7.157,7.157,0,0,0,2.043,4.863l14.654,16.471a14.423,14.423,0,0,1,4.053,9.758v3.5a13.923,13.923,0,0,1-13.812,13.812h-6.938q-6.875,0-10.343-3.469t-3.469-10.343H276.1q-.066.714-.066,1.135a4.825,4.825,0,0,0,2.173,4.279,8.363,8.363,0,0,0,4.766,1.459q3.695,0,5.317-1.783a7.463,7.463,0,0,0,1.621-5.187,7.085,7.085,0,0,0-2.043-4.864l-14.654-16.4a14.34,14.34,0,0,1-4.053-9.759v-3.5a13.893,13.893,0,0,1,13.812-13.811h6.938Q302.881,467.34,303.724,481.151Z" fill="#fff"/>
        <path id="Tracé_16375" data-name="Tracé 16375" d="M324.473,529.59V474.278H310.661V467.34h41.5v6.938H338.35V529.59Z" fill="#fff"/>
      </g>
      <g id="Groupe_3200" data-name="Groupe 3200" style="isolation: isolate">
        <path id="Tracé_16376" data-name="Tracé 16376" d="M-175.745,635.59V587.151a13.291,13.291,0,0,1,4.069-9.742,13.291,13.291,0,0,1,9.743-4.069h13.876a13.262,13.262,0,0,1,9.743,4.085,13.311,13.311,0,0,1,4.069,9.726V635.59h-13.812V607.9h-13.876V635.59Zm13.812-34.562h13.876V587.151a6.561,6.561,0,0,0-2.058-4.846,6.723,6.723,0,0,0-4.88-2.027,6.706,6.706,0,0,0-4.9,2.027,6.587,6.587,0,0,0-2.042,4.846Z" fill="#fff"/>
        <path id="Tracé_16377" data-name="Tracé 16377" d="M-100.17,573.34h41.5l-.033,6.938L-79.42,594.09h6.938a12.507,12.507,0,0,1,9.873,4.556q3.939,4.555,3.939,9.255v13.877a13.243,13.243,0,0,1-4.1,9.743,13.331,13.331,0,0,1-9.711,4.069H-86.358q-12.224,0-13.812-13.812h6.938q.486,6.873,6.874,6.873h6.938a6.717,6.717,0,0,0,4.879-2.026,6.562,6.562,0,0,0,2.059-4.847V607.9a8.5,8.5,0,0,0-1.734-4.247,5.821,5.821,0,0,0-5.2-2.626H-93.232V594.09l20.75-13.812H-100.17Z" fill="#fff"/>
        <path id="Tracé_16378" data-name="Tracé 16378" d="M-44.859,635.59V573.34h27.688a13.266,13.266,0,0,1,9.743,4.085,13.311,13.311,0,0,1,4.069,9.726v34.627a13.323,13.323,0,0,1-4.069,9.71,13.24,13.24,0,0,1-9.743,4.1Zm13.812-6.939h6.938a6.662,6.662,0,0,0,4.912-2.042,6.632,6.632,0,0,0,2.026-4.831V587.151a6.561,6.561,0,0,0-2.058-4.846,6.726,6.726,0,0,0-4.88-2.027h-6.938Z" fill="#fff"/>
        <path id="Tracé_16379" data-name="Tracé 16379" d="M72.216,621.778Q71.307,635.59,58.4,635.59H44.527a13.893,13.893,0,0,1-13.811-13.812V587.151a13.452,13.452,0,0,1,4-9.694,13.154,13.154,0,0,1,9.807-4.117H58.4q13.034,0,13.812,13.811H65.277q-.81-6.873-6.873-6.873H51.466a6.7,6.7,0,0,0-4.9,2.027,6.584,6.584,0,0,0-2.043,4.846v34.627a6.947,6.947,0,0,0,6.939,6.873H58.4q6.094,0,6.873-6.873Z" fill="#fff"/>
        <path id="Tracé_16380" data-name="Tracé 16380" d="M120.588,587.151h-6.874q-.907-6.937-6.549-6.938a7.689,7.689,0,0,0-5.479,1.751,6.86,6.86,0,0,0-1.848,5.22,7.165,7.165,0,0,0,2.042,4.863l14.656,16.471a14.422,14.422,0,0,1,4.052,9.758v3.5a13.921,13.921,0,0,1-13.812,13.812H99.838q-6.875,0-10.343-3.469t-3.469-10.343h6.938q-.064.714-.065,1.135a4.827,4.827,0,0,0,2.173,4.279,8.366,8.366,0,0,0,4.766,1.459q3.7,0,5.317-1.783a7.458,7.458,0,0,0,1.621-5.187,7.085,7.085,0,0,0-2.043-4.864L90.079,600.412a14.34,14.34,0,0,1-4.053-9.759v-3.5A13.893,13.893,0,0,1,99.838,573.34h6.938Q119.745,573.34,120.588,587.151Z" fill="#fff"/>
        <path id="Tracé_16381" data-name="Tracé 16381" d="M169.026,587.151h-6.873q-.909-6.937-6.55-6.938a7.689,7.689,0,0,0-5.479,1.751,6.86,6.86,0,0,0-1.848,5.22,7.161,7.161,0,0,0,2.043,4.863l14.654,16.471a14.423,14.423,0,0,1,4.053,9.758v3.5a13.923,13.923,0,0,1-13.812,13.812h-6.938q-6.875,0-10.343-3.469t-3.469-10.343H141.4q-.066.714-.066,1.135a4.825,4.825,0,0,0,2.173,4.279,8.366,8.366,0,0,0,4.766,1.459q3.7,0,5.317-1.783a7.463,7.463,0,0,0,1.621-5.187,7.081,7.081,0,0,0-2.043-4.864l-14.654-16.405a14.34,14.34,0,0,1-4.053-9.759v-3.5a13.893,13.893,0,0,1,13.812-13.811h6.938Q168.183,573.34,169.026,587.151Z" fill="#fff"/>
        <path id="Tracé_16382" data-name="Tracé 16382" d="M210.039,635.59V580.278H196.227V573.34h41.5v6.938H223.916V635.59Z" fill="#fff"/>
        <path id="Tracé_16383" data-name="Tracé 16383" d="M244.666,635.59V573.34h34.561v6.938h-20.75v20.75h13.877V607.9H258.477v20.75h20.75v6.939Z" fill="#fff"/>
        <path id="Tracé_16384" data-name="Tracé 16384" d="M327.665,587.151h-6.873q-.907-6.937-6.55-6.938a7.689,7.689,0,0,0-5.479,1.751,6.86,6.86,0,0,0-1.848,5.22,7.161,7.161,0,0,0,2.043,4.863l14.654,16.471a14.423,14.423,0,0,1,4.053,9.758v3.5a13.923,13.923,0,0,1-13.811,13.812h-6.939q-6.875,0-10.342-3.469T293.1,621.778h6.938c-.044.476-.065.854-.065,1.135a4.824,4.824,0,0,0,2.172,4.279,8.368,8.368,0,0,0,4.766,1.459q3.7,0,5.317-1.783a7.463,7.463,0,0,0,1.622-5.187,7.085,7.085,0,0,0-2.043-4.864l-14.654-16.405a14.34,14.34,0,0,1-4.053-9.759v-3.5a13.893,13.893,0,0,1,13.811-13.811h6.939Q326.821,573.34,327.665,587.151Z" fill="#fff"/>
        <path id="Tracé_16385" data-name="Tracé 16385" d="M348.414,635.59V580.278H334.6V573.34h41.5v6.938H362.291V635.59Z" fill="#fff"/>
      </g>
      <g id="Groupe_3201" data-name="Groupe 3201" style="isolation: isolate">
        <path id="Tracé_16386" data-name="Tracé 16386" d="M-6.972,741.59V731.215q0-6.128,3.469-9.565T6.84,717.4q-6.875-.81-10.343-4.28t-3.469-9.6V693.151H6.84v13.877a6.591,6.591,0,0,0,2.042,4.847,6.7,6.7,0,0,0,4.9,2.026,6.718,6.718,0,0,0,4.88-2.026,6.565,6.565,0,0,0,2.058-4.847V693.151H34.528v10.375q0,6.128-3.453,9.6T20.716,717.4q6.906.81,10.359,4.264t3.453,9.548V741.59H20.716V727.778a6.651,6.651,0,0,0-2.058-4.9,6.7,6.7,0,0,0-4.88-2.043,6.679,6.679,0,0,0-4.9,2.043,6.678,6.678,0,0,0-2.042,4.9V741.59Z" fill="#fff"/>
        <path id="Tracé_16387" data-name="Tracé 16387" d="M62.151,693.151H76.027a13.24,13.24,0,0,1,9.743,4.1,13.4,13.4,0,0,1,4.069,9.775v20.75A13.951,13.951,0,0,1,76.027,741.59H62.151a13.893,13.893,0,0,1-13.812-13.812v-20.75a13.922,13.922,0,0,1,13.812-13.877Zm0,13.877v20.75a6.938,6.938,0,0,0,13.876,0v-20.75a6.938,6.938,0,0,0-13.876,0Z" fill="#fff"/>
        <path id="Tracé_16388" data-name="Tracé 16388" d="M103.65,741.59V731.215q0-6.128,3.469-9.565t10.343-4.247q-6.875-.81-10.343-4.28t-3.469-9.6V693.151h13.812v13.877a6.591,6.591,0,0,0,2.042,4.847,6.909,6.909,0,0,0,9.776,0,6.565,6.565,0,0,0,2.058-4.847V693.151H145.15v10.375q0,6.128-3.453,9.6t-10.359,4.28q6.906.81,10.359,4.264t3.453,9.548V741.59H131.338V727.778a6.938,6.938,0,0,0-13.876,0V741.59Z" fill="#fff"/>
        <path id="Tracé_16389" data-name="Tracé 16389" d="M172.773,693.151h13.876a13.24,13.24,0,0,1,9.743,4.1,13.4,13.4,0,0,1,4.069,9.775v20.75a13.951,13.951,0,0,1-13.812,13.812H172.773a13.893,13.893,0,0,1-13.812-13.812v-20.75a13.922,13.922,0,0,1,13.812-13.877Zm0,13.877v20.75a6.938,6.938,0,0,0,13.876,0v-20.75a6.938,6.938,0,0,0-13.876,0Z" fill="#fff"/>
      </g>
    </g>
  </g>
</svg>
