<svg xmlns="http://www.w3.org/2000/svg" width="784.9" height="786.899" viewBox="0 0 784.9 786.899">
  <g id="Groupe_1129" data-name="Groupe 1129" transform="translate(-5832.3 -11116.2)">
    <g id="Groupe_1125" data-name="Groupe 1125" transform="translate(-224 124)">
      <g id="_09" data-name="09" transform="translate(5748 10687)">
        <g id="Groupe_1110" data-name="Groupe 1110">
          <rect id="Rectangle_112" data-name="Rectangle 112" width="784.9" height="65" transform="translate(308.3 305.2)" fill="#e7dada"/>
          <rect id="Rectangle_113" data-name="Rectangle 113" width="784.9" height="607.8" transform="translate(308.3 484.3)" fill="#e7dada"/>
          <rect id="Rectangle_114" data-name="Rectangle 114" width="784.9" height="114.1" transform="translate(308.3 370.2)" fill="#bcb0af"/>
        </g>
        <path id="Tracé_11970" data-name="Tracé 11970" d="M379.6,337.7a11.928,11.928,0,0,1-11.9,11.9h0a11.928,11.928,0,0,1-11.9-11.9h0a11.928,11.928,0,0,1,11.9-11.9h0a11.993,11.993,0,0,1,11.9,11.9Z" fill="#928585"/>
        <path id="Tracé_11971" data-name="Tracé 11971" d="M446.1,337.7a11.928,11.928,0,0,1-11.9,11.9h0a11.928,11.928,0,0,1-11.9-11.9h0a11.928,11.928,0,0,1,11.9-11.9h0a12.06,12.06,0,0,1,11.9,11.9Z" fill="#928585"/>
        <path id="Tracé_11972" data-name="Tracé 11972" d="M512.5,337.7a11.928,11.928,0,0,1-11.9,11.9h0a11.928,11.928,0,0,1-11.9-11.9h0a11.928,11.928,0,0,1,11.9-11.9h0a11.993,11.993,0,0,1,11.9,11.9Z" fill="#928585"/>
        <path id="Tracé_11973" data-name="Tracé 11973" d="M579,337.7a11.928,11.928,0,0,1-11.9,11.9h0a11.928,11.928,0,0,1-11.9-11.9h0a11.928,11.928,0,0,1,11.9-11.9h0A12.06,12.06,0,0,1,579,337.7Z" fill="#928585"/>
        <path id="Tracé_11974" data-name="Tracé 11974" d="M645.4,337.7a11.928,11.928,0,0,1-11.9,11.9h0a11.928,11.928,0,0,1-11.9-11.9h0a11.928,11.928,0,0,1,11.9-11.9h0a11.993,11.993,0,0,1,11.9,11.9Z" fill="#928585"/>
        <path id="Tracé_11975" data-name="Tracé 11975" d="M711.9,337.7A11.928,11.928,0,0,1,700,349.6h0a11.928,11.928,0,0,1-11.9-11.9h0A11.928,11.928,0,0,1,700,325.8h0a12.06,12.06,0,0,1,11.9,11.9Z" fill="#928585"/>
        <path id="Tracé_11976" data-name="Tracé 11976" d="M778.3,337.7a11.928,11.928,0,0,1-11.9,11.9h0a11.928,11.928,0,0,1-11.9-11.9h0a11.928,11.928,0,0,1,11.9-11.9h0a11.993,11.993,0,0,1,11.9,11.9Z" fill="#928585"/>
        <path id="Tracé_11977" data-name="Tracé 11977" d="M844.8,337.7a11.928,11.928,0,0,1-11.9,11.9h0A11.928,11.928,0,0,1,821,337.7h0a11.928,11.928,0,0,1,11.9-11.9h0a11.993,11.993,0,0,1,11.9,11.9Z" fill="#928585"/>
        <path id="Tracé_11978" data-name="Tracé 11978" d="M911.2,337.7a11.928,11.928,0,0,1-11.9,11.9h0a11.928,11.928,0,0,1-11.9-11.9h0a11.928,11.928,0,0,1,11.9-11.9h0a11.993,11.993,0,0,1,11.9,11.9Z" fill="#928585"/>
        <path id="Tracé_11979" data-name="Tracé 11979" d="M977.7,337.7a11.928,11.928,0,0,1-11.9,11.9h0a11.928,11.928,0,0,1-11.9-11.9h0a11.928,11.928,0,0,1,11.9-11.9h0a11.993,11.993,0,0,1,11.9,11.9Z" fill="#928585"/>
        <path id="Tracé_11980" data-name="Tracé 11980" d="M449.1,430.3a11.928,11.928,0,0,1-11.9,11.9h0a11.928,11.928,0,0,1-11.9-11.9h0a11.928,11.928,0,0,1,11.9-11.9h0a11.993,11.993,0,0,1,11.9,11.9Z" fill="#e7dada"/>
        <path id="Tracé_11981" data-name="Tracé 11981" d="M980.7,430.3a11.928,11.928,0,0,1-11.9,11.9h0a11.928,11.928,0,0,1-11.9-11.9h0a11.928,11.928,0,0,1,11.9-11.9h0a11.993,11.993,0,0,1,11.9,11.9Z" fill="#e7dada"/>
        <path id="Tracé_11982" data-name="Tracé 11982" d="M446.1,427.3a11.928,11.928,0,0,1-11.9,11.9h0a11.928,11.928,0,0,1-11.9-11.9h0a11.928,11.928,0,0,1,11.9-11.9h0a11.928,11.928,0,0,1,11.9,11.9Z" fill="#fff"/>
        <path id="Tracé_11983" data-name="Tracé 11983" d="M977.7,427.3a11.928,11.928,0,0,1-11.9,11.9h0a11.928,11.928,0,0,1-11.9-11.9h0a11.928,11.928,0,0,1,11.9-11.9h0a11.865,11.865,0,0,1,11.9,11.9Z" fill="#fff"/>
        <path id="Tracé_11984" data-name="Tracé 11984" d="M1044.1,337.7a11.928,11.928,0,0,1-11.9,11.9h0a11.928,11.928,0,0,1-11.9-11.9h0a11.928,11.928,0,0,1,11.9-11.9h0a11.993,11.993,0,0,1,11.9,11.9Z" fill="#928585"/>
        <rect id="Rectangle_121" data-name="Rectangle 121" width="742.7" height="389.9" transform="translate(328.5 505.1)" fill="#928585"/>
        <rect id="Rectangle_122" data-name="Rectangle 122" width="742.8" height="142.9" transform="translate(328.5 921.6)" fill="#928585"/>
        <path id="Tracé_11985" data-name="Tracé 11985" d="M1058.384,505.1V886.8H328.5v8.1h742.8V505.1Z" transform="translate(0 0)" fill="#7c7272"/>
        <path id="Tracé_11988" data-name="Tracé 11988" d="M1058.171,921.6v134.7H328.5v8.2h742.9V921.6Z" transform="translate(0 0)" fill="#7c7272"/>
      </g>
    </g>
    <g id="LA_3D_EST_TROP_GALÈRE_J_LAISSE_TOMBER" data-name="LA 3D EST TROP GALÈRE J LAISSE TOMBER" transform="translate(5943.578 11105.567)" style="isolation: isolate">
      <g id="Groupe_1126" data-name="Groupe 1126" style="isolation: isolate">
        <path id="Tracé_12046" data-name="Tracé 12046" d="M35.79,361.183v-42.75h9.485v37.985h14.25v4.765Z" fill="#fff"/>
        <path id="Tracé_12047" data-name="Tracé 12047" d="M74.754,361.183V327.918a9.542,9.542,0,0,1,9.486-9.485h9.53a9.559,9.559,0,0,1,9.484,9.485v33.265H93.77V342.168H84.24v19.015Zm9.486-23.736h9.53v-9.529a4.507,4.507,0,0,0-1.415-3.329,4.742,4.742,0,0,0-6.712,0,4.525,4.525,0,0,0-1.4,3.329Z" fill="#fff"/>
        <path id="Tracé_12048" data-name="Tracé 12048" d="M138.055,318.433h28.5l-.022,4.764L152.3,332.683h4.765a8.593,8.593,0,0,1,6.78,3.128,9.708,9.708,0,0,1,2.7,6.357V351.7a9.578,9.578,0,0,1-9.485,9.486h-9.529q-8.4,0-9.486-9.486h4.765q.334,4.722,4.721,4.721H152.3a4.615,4.615,0,0,0,3.351-1.392,4.5,4.5,0,0,0,1.414-3.329v-9.529a5.832,5.832,0,0,0-1.191-2.917,4,4,0,0,0-3.574-1.8H142.82v-4.764l14.25-9.486H138.055Z" fill="#fff"/>
        <path id="Tracé_12049" data-name="Tracé 12049" d="M181.74,361.183v-42.75h19.015a9.559,9.559,0,0,1,9.485,9.485V351.7a9.58,9.58,0,0,1-9.485,9.486Zm9.485-4.765h4.765a4.772,4.772,0,0,0,4.765-4.721V327.918a4.509,4.509,0,0,0-1.414-3.329,4.617,4.617,0,0,0-3.351-1.392h-4.765Z" fill="#fff"/>
        <path id="Tracé_12050" data-name="Tracé 12050" d="M245.041,361.183v-42.75h23.735V323.2h-14.25v14.25h9.53v4.721h-9.53v14.25h14.25v4.765Z" fill="#fff"/>
        <path id="Tracé_12051" data-name="Tracé 12051" d="M307.74,327.918h-4.72q-.624-4.766-4.5-4.765a5.284,5.284,0,0,0-3.763,1.2,4.713,4.713,0,0,0-1.269,3.585,4.919,4.919,0,0,0,1.4,3.34l10.064,11.311a9.9,9.9,0,0,1,2.783,6.7v2.4a9.561,9.561,0,0,1-9.485,9.486H293.49q-4.721,0-7.1-2.383t-2.383-7.1h4.765c-.03.327-.044.587-.044.78a3.315,3.315,0,0,0,1.491,2.939,5.748,5.748,0,0,0,3.273,1,4.73,4.73,0,0,0,3.652-1.225,5.124,5.124,0,0,0,1.113-3.562,4.865,4.865,0,0,0-1.4-3.34l-10.065-11.267a9.847,9.847,0,0,1-2.783-6.7v-2.4a9.54,9.54,0,0,1,9.485-9.485h4.765Q307.16,318.433,307.74,327.918Z" fill="#fff"/>
        <path id="Tracé_12052" data-name="Tracé 12052" d="M327.69,361.183V323.2H318.2v-4.764h28.5V323.2H337.22v37.986Z" fill="#fff"/>
        <path id="Tracé_12053" data-name="Tracé 12053" d="M381.506,361.183V323.2h-9.485v-4.764h28.5V323.2h-9.486v37.986Z" fill="#fff"/>
        <path id="Tracé_12054" data-name="Tracé 12054" d="M410.985,361.183v-42.75H430a9.559,9.559,0,0,1,9.485,9.485V330.5a10.188,10.188,0,0,1-2.181,6.134q-2.182,2.95-7.3,2.95h4.721a4.787,4.787,0,0,1,4.764,4.765v16.833H430v-14.25a4.806,4.806,0,0,0-4.765-4.765h-4.764v19.015Zm9.486-23.736h4.764A4.827,4.827,0,0,0,430,332.683v-4.765a4.508,4.508,0,0,0-1.413-3.329,4.617,4.617,0,0,0-3.352-1.392h-4.764Z" fill="#fff"/>
        <path id="Tracé_12055" data-name="Tracé 12055" d="M464.155,318.433h9.53a9.559,9.559,0,0,1,9.485,9.485V351.7a9.58,9.58,0,0,1-9.485,9.486h-9.53a9.542,9.542,0,0,1-9.485-9.486V327.918a9.542,9.542,0,0,1,9.485-9.485Zm0,9.485V351.7a4.765,4.765,0,0,0,9.53,0V327.918a4.506,4.506,0,0,0-1.414-3.329,4.743,4.743,0,0,0-6.713,0A4.525,4.525,0,0,0,464.155,327.918Z" fill="#fff"/>
        <path id="Tracé_12056" data-name="Tracé 12056" d="M498.354,361.183v-42.75h19.015a9.557,9.557,0,0,1,9.485,9.485v4.765a9.54,9.54,0,0,1-9.485,9.485H507.84v19.015Zm9.486-23.736H512.6a4.827,4.827,0,0,0,4.765-4.764v-4.765a4.508,4.508,0,0,0-1.413-3.329A4.617,4.617,0,0,0,512.6,323.2H507.84Z" fill="#fff"/>
      </g>
      <g id="Groupe_1127" data-name="Groupe 1127" style="isolation: isolate">
        <path id="Tracé_12057" data-name="Tracé 12057" d="M20.672,410.447h14.25V424.7q0,4.722-3.039,7.1a10.279,10.279,0,0,1-6.446,2.383h-9.53a9.133,9.133,0,0,1-6.691-2.794A9.135,9.135,0,0,1,6.422,424.7V400.918a9.233,9.233,0,0,1,2.75-6.657,9.028,9.028,0,0,1,6.735-2.828h9.53q8.95,0,9.485,9.485H30.157q-.557-4.721-4.72-4.721H20.672a4.6,4.6,0,0,0-3.362,1.392,4.525,4.525,0,0,0-1.4,3.329V424.7a4.513,4.513,0,0,0,1.4,3.34,4.621,4.621,0,0,0,3.362,1.381q4.542-.222,4.765-4.721v-9.529H20.672Z" fill="#fff"/>
        <path id="Tracé_12058" data-name="Tracé 12058" d="M50.106,434.183V400.918a9.542,9.542,0,0,1,9.486-9.485h9.53a9.557,9.557,0,0,1,9.484,9.485v33.265H69.122V415.168h-9.53v19.015Zm9.486-23.736h9.53v-9.529a4.509,4.509,0,0,0-1.414-3.329,4.743,4.743,0,0,0-6.713,0,4.525,4.525,0,0,0-1.4,3.329Z" fill="#fff"/>
        <path id="Tracé_12059" data-name="Tracé 12059" d="M93.791,434.183v-42.75h9.485v37.985h14.25v4.765Z" fill="#fff"/>
        <path id="Tracé_12060" data-name="Tracé 12060" d="M132.756,434.183v-42.75h23.735V396.2h-14.25v14.25h9.53v4.721h-9.53v14.25h14.25v4.765Zm9.485-47.493-4.764-9.507h4.764l4.765,9.507Z" fill="#fff"/>
        <path id="Tracé_12061" data-name="Tracé 12061" d="M171.72,434.183v-42.75h19.015a9.559,9.559,0,0,1,9.485,9.485V403.5a10.188,10.188,0,0,1-2.181,6.134q-2.184,2.95-7.3,2.95h4.721a4.787,4.787,0,0,1,4.764,4.765v16.833h-9.485v-14.25a4.808,4.808,0,0,0-4.765-4.765h-4.764v19.015Zm9.486-23.736h4.764a4.829,4.829,0,0,0,4.765-4.764v-4.765a4.506,4.506,0,0,0-1.414-3.329,4.615,4.615,0,0,0-3.351-1.392h-4.764Z" fill="#fff"/>
        <path id="Tracé_12062" data-name="Tracé 12062" d="M215.4,434.183v-42.75H239.14V396.2H224.89v14.25h9.53v4.721h-9.53v14.25h14.25v4.765Z" fill="#fff"/>
        <path id="Tracé_12063" data-name="Tracé 12063" d="M297.721,391.433V424.7q0,4.722-2.383,7.1t-7.1,2.383h-9.529q-4.721,0-7.1-2.383t-2.382-7.1v-9.529h9.485V424.7a4.5,4.5,0,0,0,1.414,3.329,4.743,4.743,0,0,0,6.713,0,4.523,4.523,0,0,0,1.4-3.329V391.433Z" fill="#fff"/>
        <path id="Tracé_12064" data-name="Tracé 12064" d="M312.95,391.433h9.486v9.485q0,8.439-9.486,9.529v-4.764q4.587-.179,4.765-4.765H312.95Z" fill="#fff"/>
        <path id="Tracé_12065" data-name="Tracé 12065" d="M337.664,434.183v-42.75h9.485v37.985H361.4v4.765Z" fill="#fff"/>
        <path id="Tracé_12066" data-name="Tracé 12066" d="M376.629,434.183V400.918a9.542,9.542,0,0,1,9.485-9.485h9.53a9.559,9.559,0,0,1,9.485,9.485v33.265h-9.485V415.168h-9.53v19.015Zm9.485-23.736h9.53v-9.529a4.506,4.506,0,0,0-1.414-3.329,4.743,4.743,0,0,0-6.713,0,4.525,4.525,0,0,0-1.4,3.329Z" fill="#fff"/>
        <path id="Tracé_12067" data-name="Tracé 12067" d="M425.034,434.183v-42.75h9.507v42.75Z" fill="#fff"/>
        <path id="Tracé_12068" data-name="Tracé 12068" d="M478.249,400.918h-4.721q-.623-4.766-4.5-4.765a5.278,5.278,0,0,0-3.762,1.2A4.71,4.71,0,0,0,464,400.94a4.923,4.923,0,0,0,1.4,3.34l10.065,11.311a9.9,9.9,0,0,1,2.783,6.7v2.4a9.561,9.561,0,0,1-9.485,9.486H464q-4.721,0-7.1-2.383t-2.382-7.1h4.764q-.044.49-.044.78a3.314,3.314,0,0,0,1.492,2.939,5.75,5.75,0,0,0,3.273,1,4.728,4.728,0,0,0,3.651-1.225,5.119,5.119,0,0,0,1.114-3.562,4.866,4.866,0,0,0-1.4-3.34L457.3,410.024a9.842,9.842,0,0,1-2.783-6.7v-2.4A9.54,9.54,0,0,1,464,391.433h4.765Q477.669,391.433,478.249,400.918Z" fill="#fff"/>
        <path id="Tracé_12069" data-name="Tracé 12069" d="M517.213,400.918h-4.721q-.622-4.766-4.5-4.765a5.282,5.282,0,0,0-3.763,1.2,4.713,4.713,0,0,0-1.269,3.585,4.923,4.923,0,0,0,1.4,3.34l10.065,11.311a9.9,9.9,0,0,1,2.783,6.7v2.4a9.561,9.561,0,0,1-9.485,9.486h-4.765q-4.722,0-7.1-2.383t-2.382-7.1h4.764q-.043.49-.044.78a3.315,3.315,0,0,0,1.491,2.939,5.753,5.753,0,0,0,3.274,1,4.728,4.728,0,0,0,3.651-1.225,5.124,5.124,0,0,0,1.114-3.562,4.866,4.866,0,0,0-1.4-3.34l-10.064-11.267a9.842,9.842,0,0,1-2.783-6.7v-2.4a9.54,9.54,0,0,1,9.485-9.485h4.765Q516.633,391.433,517.213,400.918Z" fill="#fff"/>
        <path id="Tracé_12070" data-name="Tracé 12070" d="M532.442,434.183v-42.75h23.736V396.2h-14.25v14.25h9.529v4.721h-9.529v14.25h14.25v4.765Z" fill="#fff"/>
      </g>
      <g id="Groupe_1128" data-name="Groupe 1128" style="isolation: isolate">
        <path id="Tracé_12071" data-name="Tracé 12071" d="M160.178,507.183V469.2h-9.486v-4.764h28.5V469.2h-9.485v37.986Z" fill="#fff"/>
        <path id="Tracé_12072" data-name="Tracé 12072" d="M199.143,464.433h9.529a9.559,9.559,0,0,1,9.485,9.485V497.7a9.58,9.58,0,0,1-9.485,9.486h-9.529a9.542,9.542,0,0,1-9.486-9.486V473.918a9.542,9.542,0,0,1,9.486-9.485Zm0,9.485V497.7a4.765,4.765,0,0,0,9.529,0V473.918a4.506,4.506,0,0,0-1.414-3.329,4.743,4.743,0,0,0-6.713,0A4.524,4.524,0,0,0,199.143,473.918Z" fill="#fff"/>
        <path id="Tracé_12073" data-name="Tracé 12073" d="M233.342,507.183v-42.75h2.16l20.306,20.261,20.284-20.261h4.765v42.75h-9.53v-26.14L254.65,497.72l-16.543-16.677v26.14Z" fill="#fff"/>
        <path id="Tracé_12074" data-name="Tracé 12074" d="M296.042,507.183v-42.75h19.015a9.559,9.559,0,0,1,9.484,9.485v2.4a8.866,8.866,0,0,1-2.371,6.546q-2.372,2.383-7.113,2.94,4.741,0,7.113,2.861a10.072,10.072,0,0,1,2.371,6.624v2.4a9.619,9.619,0,0,1-9.484,9.486Zm9.484-23.736h4.765a4.829,4.829,0,0,0,4.766-4.764v-4.765a4.509,4.509,0,0,0-1.414-3.329,4.619,4.619,0,0,0-3.352-1.392h-4.765Zm0,18.971h4.765a4.6,4.6,0,0,0,3.352-1.4,4.519,4.519,0,0,0,1.414-3.318v-4.764q0-4.766-4.766-4.765h-4.765Z" fill="#fff"/>
        <path id="Tracé_12075" data-name="Tracé 12075" d="M339.726,507.183v-42.75h23.735V469.2h-14.25v14.25h9.53v4.721h-9.53v14.25h14.25v4.765Z" fill="#fff"/>
        <path id="Tracé_12076" data-name="Tracé 12076" d="M378.69,507.183v-42.75h19.016a9.559,9.559,0,0,1,9.484,9.485V476.5a10.181,10.181,0,0,1-2.181,6.134q-2.183,2.95-7.3,2.95h4.72a4.787,4.787,0,0,1,4.764,4.765v16.833h-9.484v-14.25a4.808,4.808,0,0,0-4.766-4.765h-4.764v19.015Zm9.486-23.736h4.764a4.829,4.829,0,0,0,4.766-4.764v-4.765a4.509,4.509,0,0,0-1.414-3.329,4.617,4.617,0,0,0-3.352-1.392h-4.764Z" fill="#fff"/>
      </g>
    </g>
  </g>
</svg>
