<svg xmlns="http://www.w3.org/2000/svg" width="784.9" height="786.899" viewBox="0 0 784.9 786.899">
  <g id="Groupe_1137" data-name="Groupe 1137" transform="translate(-5102.3 -10188.2)">
    <g id="Groupe_1132" data-name="Groupe 1132" transform="translate(-121 134)">
      <g id="Groupe_1123" data-name="Groupe 1123" transform="translate(0 -105)">
        <g id="_09" data-name="09" transform="translate(4915 9854)">
          <g id="Groupe_1110" data-name="Groupe 1110">
            <rect id="Rectangle_112" data-name="Rectangle 112" width="784.9" height="65" transform="translate(308.3 305.2)" fill="#e7dada"/>
            <rect id="Rectangle_113" data-name="Rectangle 113" width="784.9" height="607.8" transform="translate(308.3 484.3)" fill="#e7dada"/>
            <rect id="Rectangle_114" data-name="Rectangle 114" width="784.9" height="114.1" transform="translate(308.3 370.2)" fill="#bcb0af"/>
          </g>
          <rect id="Rectangle_115" data-name="Rectangle 115" width="223.9" height="559.4" transform="translate(792.1 505.1)" fill="#282323"/>
          <rect id="Rectangle_116" data-name="Rectangle 116" width="82.7" height="91.5" transform="translate(811.2 519.9)" fill="rgba(255,255,255,0.87)"/>
          <rect id="Rectangle_117" data-name="Rectangle 117" width="185.7" height="235.4" transform="translate(811.2 659.6)" fill="rgba(255,255,255,0.87)"/>
          <rect id="Rectangle_118" data-name="Rectangle 118" width="82.7" height="91.5" transform="translate(914.1 519.9)" fill="rgba(255,255,255,0.87)"/>
          <rect id="Rectangle_119" data-name="Rectangle 119" width="185.7" height="30.9" transform="translate(811.2 914.3)" fill="#928585"/>
          <path id="Tracé_11970" data-name="Tracé 11970" d="M379.6,337.7a11.928,11.928,0,0,1-11.9,11.9h0a11.928,11.928,0,0,1-11.9-11.9h0a11.928,11.928,0,0,1,11.9-11.9h0a11.993,11.993,0,0,1,11.9,11.9Z" fill="#928585"/>
          <path id="Tracé_11971" data-name="Tracé 11971" d="M446.1,337.7a11.928,11.928,0,0,1-11.9,11.9h0a11.928,11.928,0,0,1-11.9-11.9h0a11.928,11.928,0,0,1,11.9-11.9h0a12.06,12.06,0,0,1,11.9,11.9Z" fill="#928585"/>
          <path id="Tracé_11972" data-name="Tracé 11972" d="M512.5,337.7a11.928,11.928,0,0,1-11.9,11.9h0a11.928,11.928,0,0,1-11.9-11.9h0a11.928,11.928,0,0,1,11.9-11.9h0a11.993,11.993,0,0,1,11.9,11.9Z" fill="#928585"/>
          <path id="Tracé_11973" data-name="Tracé 11973" d="M579,337.7a11.928,11.928,0,0,1-11.9,11.9h0a11.928,11.928,0,0,1-11.9-11.9h0a11.928,11.928,0,0,1,11.9-11.9h0A12.06,12.06,0,0,1,579,337.7Z" fill="#928585"/>
          <path id="Tracé_11974" data-name="Tracé 11974" d="M645.4,337.7a11.928,11.928,0,0,1-11.9,11.9h0a11.928,11.928,0,0,1-11.9-11.9h0a11.928,11.928,0,0,1,11.9-11.9h0a11.993,11.993,0,0,1,11.9,11.9Z" fill="#928585"/>
          <path id="Tracé_11975" data-name="Tracé 11975" d="M711.9,337.7A11.928,11.928,0,0,1,700,349.6h0a11.928,11.928,0,0,1-11.9-11.9h0A11.928,11.928,0,0,1,700,325.8h0a12.06,12.06,0,0,1,11.9,11.9Z" fill="#928585"/>
          <path id="Tracé_11976" data-name="Tracé 11976" d="M778.3,337.7a11.928,11.928,0,0,1-11.9,11.9h0a11.928,11.928,0,0,1-11.9-11.9h0a11.928,11.928,0,0,1,11.9-11.9h0a11.993,11.993,0,0,1,11.9,11.9Z" fill="#928585"/>
          <path id="Tracé_11977" data-name="Tracé 11977" d="M844.8,337.7a11.928,11.928,0,0,1-11.9,11.9h0A11.928,11.928,0,0,1,821,337.7h0a11.928,11.928,0,0,1,11.9-11.9h0a11.993,11.993,0,0,1,11.9,11.9Z" fill="#928585"/>
          <path id="Tracé_11978" data-name="Tracé 11978" d="M911.2,337.7a11.928,11.928,0,0,1-11.9,11.9h0a11.928,11.928,0,0,1-11.9-11.9h0a11.928,11.928,0,0,1,11.9-11.9h0a11.993,11.993,0,0,1,11.9,11.9Z" fill="#928585"/>
          <path id="Tracé_11979" data-name="Tracé 11979" d="M977.7,337.7a11.928,11.928,0,0,1-11.9,11.9h0a11.928,11.928,0,0,1-11.9-11.9h0a11.928,11.928,0,0,1,11.9-11.9h0a11.993,11.993,0,0,1,11.9,11.9Z" fill="#928585"/>
          <path id="Tracé_11980" data-name="Tracé 11980" d="M449.1,430.3a11.928,11.928,0,0,1-11.9,11.9h0a11.928,11.928,0,0,1-11.9-11.9h0a11.928,11.928,0,0,1,11.9-11.9h0a11.993,11.993,0,0,1,11.9,11.9Z" fill="#e7dada"/>
          <path id="Tracé_11981" data-name="Tracé 11981" d="M980.7,430.3a11.928,11.928,0,0,1-11.9,11.9h0a11.928,11.928,0,0,1-11.9-11.9h0a11.928,11.928,0,0,1,11.9-11.9h0a11.993,11.993,0,0,1,11.9,11.9Z" fill="#e7dada"/>
          <path id="Tracé_11982" data-name="Tracé 11982" d="M446.1,427.3a11.928,11.928,0,0,1-11.9,11.9h0a11.928,11.928,0,0,1-11.9-11.9h0a11.928,11.928,0,0,1,11.9-11.9h0a11.928,11.928,0,0,1,11.9,11.9Z" fill="#fff"/>
          <path id="Tracé_11983" data-name="Tracé 11983" d="M977.7,427.3a11.928,11.928,0,0,1-11.9,11.9h0a11.928,11.928,0,0,1-11.9-11.9h0a11.928,11.928,0,0,1,11.9-11.9h0a11.865,11.865,0,0,1,11.9,11.9Z" fill="#fff"/>
          <path id="Tracé_11984" data-name="Tracé 11984" d="M1044.1,337.7a11.928,11.928,0,0,1-11.9,11.9h0a11.928,11.928,0,0,1-11.9-11.9h0a11.928,11.928,0,0,1,11.9-11.9h0a11.993,11.993,0,0,1,11.9,11.9Z" fill="#928585"/>
          <rect id="Rectangle_120" data-name="Rectangle 120" width="34.2" height="389.9" transform="translate(1037.2 505.1)" fill="#928585"/>
          <rect id="Rectangle_121" data-name="Rectangle 121" width="34.2" height="389.9" transform="translate(328.5 505.1)" fill="#928585"/>
          <rect id="Rectangle_122" data-name="Rectangle 122" width="437.9" height="142.9" transform="translate(328.5 921.6)" fill="#928585"/>
          <rect id="Rectangle_123" data-name="Rectangle 123" width="34.2" height="142.9" transform="translate(1037.2 921.6)" fill="#928585"/>
          <path id="Tracé_11985" data-name="Tracé 11985" d="M355,505.1V886.8H328.5v8.1h34.3V505.1Z" fill="#7c7272"/>
          <path id="Tracé_11986" data-name="Tracé 11986" d="M1063.7,505.1V886.8h-26.5v8.1h34.3V505.1Z" fill="#7c7272"/>
          <path id="Tracé_11987" data-name="Tracé 11987" d="M1063.7,921.6v134.7h-26.5v8.2h34.3V921.6Z" fill="#7c7272"/>
          <path id="Tracé_11988" data-name="Tracé 11988" d="M758.7,921.6v134.7H328.5v8.2h438V921.6Z" fill="#7c7272"/>
          <path id="Tracé_11989" data-name="Tracé 11989" d="M984.7,659.6V882.3H811.2v12.6H996.9V659.6Z" fill="#3d3d3e"/>
          <path id="Tracé_11990" data-name="Tracé 11990" d="M990.4,519.9v84.7H914.1v6.8h82.8V519.9Z" fill="#3d3d3e"/>
          <path id="Tracé_11991" data-name="Tracé 11991" d="M887.4,519.9v84.7H811.2v6.8h82.7V519.9Z" fill="#3d3d3e"/>
          <path id="Tracé_11992" data-name="Tracé 11992" d="M410.5,674.6l-22.9-28.2L754.5,505.1l37.6,48.6V674.6L741.9,784.8Z" fill="#7c7272"/>
          <path id="Tracé_11993" data-name="Tracé 11993" d="M410.5,659.6A26.546,26.546,0,0,0,437,633.1H384A26.481,26.481,0,0,0,410.5,659.6Z" fill="#a7abd9"/>
          <path id="Tracé_11994" data-name="Tracé 11994" d="M463.4,659.6a26.546,26.546,0,0,0,26.5-26.5H437A26.4,26.4,0,0,0,463.4,659.6Z" fill="#a7abd9"/>
          <path id="Tracé_11995" data-name="Tracé 11995" d="M516.4,659.6a26.546,26.546,0,0,0,26.5-26.5H490A26.333,26.333,0,0,0,516.4,659.6Z" fill="#a7abd9"/>
          <path id="Tracé_11996" data-name="Tracé 11996" d="M569.3,659.6a26.546,26.546,0,0,0,26.5-26.5H542.9A26.4,26.4,0,0,0,569.3,659.6Z" fill="#a7abd9"/>
          <path id="Tracé_11997" data-name="Tracé 11997" d="M622.3,659.6a26.546,26.546,0,0,0,26.5-26.5H595.9A26.27,26.27,0,0,0,622.3,659.6Z" fill="#a7abd9"/>
          <path id="Tracé_11998" data-name="Tracé 11998" d="M675.2,659.6a26.546,26.546,0,0,0,26.5-26.5H648.8A26.333,26.333,0,0,0,675.2,659.6Z" fill="#a7abd9"/>
          <path id="Tracé_11999" data-name="Tracé 11999" d="M728.1,659.6a26.546,26.546,0,0,0,26.5-26.5H701.7A26.4,26.4,0,0,0,728.1,659.6Z" fill="#a7abd9"/>
          <g id="Groupe_1112" data-name="Groupe 1112">
            <rect id="Rectangle_124" data-name="Rectangle 124" width="52.9" height="128.1" transform="translate(437 505.1)" fill="#636ead"/>
            <rect id="Rectangle_125" data-name="Rectangle 125" width="52.9" height="128.1" transform="translate(384 505.1)" fill="#a7abd9"/>
            <rect id="Rectangle_126" data-name="Rectangle 126" width="52.9" height="128.1" transform="translate(489.9 505.1)" fill="#a7abd9"/>
            <rect id="Rectangle_127" data-name="Rectangle 127" width="52.9" height="128.1" transform="translate(595.8 505.1)" fill="#a7abd9"/>
            <rect id="Rectangle_128" data-name="Rectangle 128" width="52.9" height="128.1" transform="translate(542.9 505.1)" fill="#636ead"/>
            <rect id="Rectangle_129" data-name="Rectangle 129" width="52.9" height="128.1" transform="translate(648.7 505.1)" fill="#636ead"/>
            <rect id="Rectangle_130" data-name="Rectangle 130" width="52.9" height="128.1" transform="translate(701.7 505.1)" fill="#a7abd9"/>
          </g>
          <rect id="Rectangle_131" data-name="Rectangle 131" width="345.1" height="220.4" transform="translate(396.8 674.6)" fill="rgba(255,255,255,0.87)"/>
          <path id="Tracé_12000" data-name="Tracé 12000" d="M729.7,674.6V882.3H396.8v12.6H741.9V674.6Z" fill="#3d3d3e"/>
          <g id="Groupe_1121" data-name="Groupe 1121">
            <path id="Tracé_12026" data-name="Tracé 12026" d="M910.4,812A48.608,48.608,0,0,0,943,766.1a4.1,4.1,0,0,0-.1-1.1h-86c0,.4-.1.7-.1,1.1A48.511,48.511,0,0,0,889.4,812Z" fill="#3d3d3e"/>
            <path id="Tracé_12027" data-name="Tracé 12027" d="M926.5,818.9a3.585,3.585,0,0,1-3.6,3.6h-46a3.585,3.585,0,0,1-3.6-3.6h0a3.585,3.585,0,0,1,3.6-3.6h46a3.585,3.585,0,0,1,3.6,3.6Z" fill="#3d3d3e"/>
            <g id="Groupe_1120" data-name="Groupe 1120">
              <path id="Tracé_12028" data-name="Tracé 12028" d="M942.6,804.5H917.1a14.75,14.75,0,0,1,0-29.5h25.5a14.75,14.75,0,0,1,0,29.5Zm-25.5-24a9.2,9.2,0,0,0,0,18.4h25.5a9.2,9.2,0,0,0,0-18.4Z" fill="#3d3d3e"/>
            </g>
            <path id="Tracé_12029" data-name="Tracé 12029" d="M901.5,756.8c6.3-2.7,15.3-7.9,19.4-12.9,14.9-18-13.8-34.1-15.7-51.6-5.1,6.5-6.3,16.6-4.1,24.4,3,10.7,10.1,17.8,6.6,29.6A25.948,25.948,0,0,1,901.5,756.8Z" fill="#3d3d3e"/>
            <path id="Tracé_12030" data-name="Tracé 12030" d="M885.2,752.1c3.9-1.7,9.6-5,12.2-8.1,9.4-11.3-8.6-21.4-9.9-32.4-3.2,4.1-3.9,10.4-2.6,15.3,1.9,6.7,6.3,11.1,4.1,18.6A14.546,14.546,0,0,1,885.2,752.1Z" fill="#3d3d3e"/>
          </g>
          <rect id="Rectangle_141" data-name="Rectangle 141" width="235.6" height="15.8" transform="translate(786.3 626.6)" fill="#282323"/>
        </g>
        <g id="BUBBLE_TEA" data-name="BUBBLE TEA" transform="translate(5336.013 9868.664)" style="isolation: isolate">
          <g id="Groupe_1122" data-name="Groupe 1122" style="isolation: isolate">
            <path id="Tracé_12031" data-name="Tracé 12031" d="M72.987,435.587V388.336H94a10.568,10.568,0,0,1,10.484,10.484v2.658a9.8,9.8,0,0,1-2.621,7.235q-2.62,2.632-7.863,3.248,5.243,0,7.863,3.163a11.135,11.135,0,0,1,2.621,7.321V425.1A10.632,10.632,0,0,1,94,435.587ZM83.47,409.353h5.267A5.336,5.336,0,0,0,94,404.086V398.82a4.982,4.982,0,0,0-1.563-3.679,5.1,5.1,0,0,0-3.7-1.538H83.47Zm0,20.967h5.267a5.082,5.082,0,0,0,3.7-1.549A5,5,0,0,0,94,425.1v-5.268q0-5.265-5.266-5.266H83.47Z" fill="#fff"/>
            <path id="Tracé_12032" data-name="Tracé 12032" d="M142.286,388.336H152.77V425.1a10.589,10.589,0,0,1-10.484,10.483H131.753A10.545,10.545,0,0,1,121.27,425.1V388.336h10.483V425.1a5.267,5.267,0,0,0,10.533,0Z" fill="#fff"/>
            <path id="Tracé_12033" data-name="Tracé 12033" d="M169.553,435.587V388.336h21.016a10.568,10.568,0,0,1,10.484,10.484v2.658a9.8,9.8,0,0,1-2.621,7.235q-2.621,2.632-7.863,3.248,5.241,0,7.863,3.163a11.135,11.135,0,0,1,2.621,7.321V425.1a10.634,10.634,0,0,1-10.484,10.483Zm10.483-26.234H185.3a5.336,5.336,0,0,0,5.266-5.267V398.82a4.982,4.982,0,0,0-1.563-3.679,5.1,5.1,0,0,0-3.7-1.538h-5.267Zm0,20.967H185.3a5.082,5.082,0,0,0,3.7-1.549,5,5,0,0,0,1.563-3.667v-5.268q0-5.265-5.266-5.266h-5.267Z" fill="#fff"/>
            <path id="Tracé_12034" data-name="Tracé 12034" d="M217.836,435.587V388.336h21.016a10.568,10.568,0,0,1,10.484,10.484v2.658a9.8,9.8,0,0,1-2.621,7.235q-2.62,2.632-7.863,3.248,5.242,0,7.863,3.163a11.135,11.135,0,0,1,2.621,7.321V425.1a10.632,10.632,0,0,1-10.484,10.483Zm10.483-26.234h5.267a5.335,5.335,0,0,0,5.266-5.267V398.82a4.985,4.985,0,0,0-1.562-3.679,5.1,5.1,0,0,0-3.7-1.538h-5.267Zm0,20.967h5.267a5.084,5.084,0,0,0,3.7-1.549,5,5,0,0,0,1.562-3.667v-5.268q0-5.265-5.266-5.266h-5.267Z" fill="#fff"/>
            <path id="Tracé_12035" data-name="Tracé 12035" d="M266.119,435.587V388.336H276.6V430.32h15.75v5.267Z" fill="#fff"/>
            <path id="Tracé_12036" data-name="Tracé 12036" d="M309.185,435.587V388.336h26.233V393.6h-15.75v15.75H330.2v5.217H319.668v15.75h15.75v5.267Z" fill="#fff"/>
            <path id="Tracé_12037" data-name="Tracé 12037" d="M379.148,435.587V393.6H368.665v-5.267h31.5V393.6H389.682v41.984Z" fill="#fff"/>
            <path id="Tracé_12038" data-name="Tracé 12038" d="M411.731,435.587V388.336h26.234V393.6h-15.75v15.75h10.533v5.217H422.215v15.75h15.75v5.267Z" fill="#fff"/>
            <path id="Tracé_12039" data-name="Tracé 12039" d="M454.8,435.587V398.82a10.545,10.545,0,0,1,10.483-10.484h10.533A10.568,10.568,0,0,1,486.3,398.82v36.767H475.813V414.57H465.28v21.017Zm10.483-26.234h10.533V398.82a4.982,4.982,0,0,0-1.563-3.679,5.242,5.242,0,0,0-7.419,0,5,5,0,0,0-1.551,3.679Z" fill="#fff"/>
          </g>
        </g>
      </g>
    </g>
    <g id="CLICK_TO_ENTER" data-name="CLICK TO ENTER" transform="translate(5075.579 10248.956)" style="isolation: isolate">
      <g id="Groupe_1135" data-name="Groupe 1135" style="isolation: isolate">
        <path id="Tracé_12094" data-name="Tracé 12094" d="M223.295,392.224q-.548,8.32-8.32,8.32h-8.36a8.369,8.369,0,0,1-8.32-8.32V371.365a8.1,8.1,0,0,1,2.412-5.84,7.925,7.925,0,0,1,5.908-2.481h8.36q7.851,0,8.32,8.321h-4.18q-.488-4.141-4.14-4.141h-4.18a4.037,4.037,0,0,0-2.949,1.221,3.965,3.965,0,0,0-1.231,2.92v20.859a4.186,4.186,0,0,0,4.18,4.141h4.18q3.67,0,4.14-4.141Z" fill="#040405"/>
        <path id="Tracé_12095" data-name="Tracé 12095" d="M236.615,400.544v-37.5h8.32v33.321h12.5v4.179Z" fill="#040405"/>
        <path id="Tracé_12096" data-name="Tracé 12096" d="M274.935,400.544v-37.5h8.339v37.5Z" fill="#040405"/>
        <path id="Tracé_12097" data-name="Tracé 12097" d="M325.794,392.224q-.548,8.32-8.32,8.32h-8.36a8.369,8.369,0,0,1-8.32-8.32V371.365a8.1,8.1,0,0,1,2.412-5.84,7.923,7.923,0,0,1,5.908-2.481h8.36q7.851,0,8.32,8.321h-4.18q-.489-4.141-4.14-4.141h-4.18a4.036,4.036,0,0,0-2.949,1.221,3.965,3.965,0,0,0-1.231,2.92v20.859a4.186,4.186,0,0,0,4.18,4.141h4.18q3.67,0,4.14-4.141Z" fill="#040405"/>
        <path id="Tracé_12098" data-name="Tracé 12098" d="M339.114,400.544v-37.5h8.321v15.313l13.476-15.313h7.383l-16.68,18.75,16.68,18.75h-8.359l-12.5-14.57v14.57Z" fill="#040405"/>
      </g>
      <g id="Groupe_1136" data-name="Groupe 1136" style="isolation: isolate">
        <path id="Tracé_12099" data-name="Tracé 12099" d="M161.741,464.545v-33.32h-8.32v-4.18h25v4.18H170.1v33.32Z" fill="#040405"/>
        <path id="Tracé_12100" data-name="Tracé 12100" d="M195.921,427.045h8.359a8.388,8.388,0,0,1,8.321,8.32v20.86a8.406,8.406,0,0,1-8.321,8.32h-8.359a8.369,8.369,0,0,1-8.32-8.32v-20.86a8.369,8.369,0,0,1,8.32-8.32Zm0,8.32v20.86a4.18,4.18,0,0,0,8.359,0v-20.86a3.953,3.953,0,0,0-1.24-2.92,4.163,4.163,0,0,0-5.889,0A3.97,3.97,0,0,0,195.921,435.365Z" fill="#040405"/>
        <path id="Tracé_12101" data-name="Tracé 12101" d="M243.127,464.545v-37.5h20.821v4.18h-12.5v12.5h8.359v4.14h-8.359v12.5h12.5v4.18Z" fill="#040405"/>
        <path id="Tracé_12102" data-name="Tracé 12102" d="M277.307,464.545v-37.5H279.2l23.106,20.82v-20.82h4.179v37.5h-1.914l-23.086-20.82v20.82Z" fill="#040405"/>
        <path id="Tracé_12103" data-name="Tracé 12103" d="M323.947,464.545v-33.32h-8.32v-4.18h25v4.18h-8.32v33.32Z" fill="#040405"/>
        <path id="Tracé_12104" data-name="Tracé 12104" d="M349.807,464.545v-37.5h20.82v4.18h-12.5v12.5h8.359v4.14h-8.359v12.5h12.5v4.18Z" fill="#040405"/>
        <path id="Tracé_12105" data-name="Tracé 12105" d="M383.986,464.545v-37.5h16.68a8.386,8.386,0,0,1,8.32,8.32v2.266a8.928,8.928,0,0,1-1.914,5.381q-1.914,2.588-6.406,2.588h4.141a4.2,4.2,0,0,1,4.179,4.179v14.766h-8.32v-12.5a4.219,4.219,0,0,0-4.18-4.18h-4.179v16.68Zm8.321-20.82h4.179a4.237,4.237,0,0,0,4.18-4.18v-4.18a3.953,3.953,0,0,0-1.24-2.92,4.053,4.053,0,0,0-2.94-1.22h-4.179Z" fill="#040405"/>
      </g>
    </g>
  </g>
</svg>
